<svg width="50" height="50" viewBox="0 0 50 50" fill="none" xmlns="http://www.w3.org/2000/svg">
<g clip-path="url(#clip0)">
<path d="M43.6783 29.7637L43.6426 29.2745C43.0699 21.8183 39.5981 17.1442 36.5354 13.0214C33.6993 9.20377 31.2499 5.90702 31.2499 1.04265C31.2499 0.652037 31.0312 0.295019 30.6843 0.115924C30.3364 -0.0641476 29.9183 -0.0346565 29.602 0.195315C25.0022 3.48699 21.1643 9.03493 19.8236 14.3285C18.8929 18.0139 18.7697 22.157 18.7524 24.8933C14.5045 23.9859 13.5423 17.6314 13.5321 17.5623C13.4843 17.2327 13.2829 16.9458 12.9899 16.7891C12.694 16.6346 12.346 16.6233 12.0459 16.7718C11.8232 16.8797 6.57837 19.5448 6.2732 30.1869C6.25182 30.5409 6.25084 30.8949 6.25084 31.2498C6.25084 41.5878 14.6621 49.9991 25.0001 49.9991C35.3381 49.9991 43.7495 41.5878 43.7495 31.2498C43.7495 30.7311 43.7139 30.2469 43.6783 29.7637ZM25.0001 47.9159C21.5538 47.9159 18.7504 44.9294 18.7504 41.2582C18.7504 41.1332 18.7494 41.007 18.7585 40.8524C18.8002 39.3042 19.0942 38.2473 19.4167 37.5444C20.0209 38.8424 21.1021 40.0355 22.8559 40.0355C23.4316 40.0355 23.8975 39.5696 23.8975 38.9939C23.8975 37.5107 23.9281 35.7999 24.2973 34.2557C24.6259 32.8855 25.4112 31.4298 26.4061 30.2621C26.8485 31.7777 27.7112 33.0045 28.5534 34.2018C29.7589 35.9148 31.0049 37.6857 31.2236 40.7058C31.2368 40.8848 31.2501 41.0649 31.2501 41.2581C31.2499 44.9294 28.4465 47.9159 25.0001 47.9159ZM31.5831 46.5549C32.6643 45.0805 33.3332 43.2579 33.3332 41.2582C33.3332 41.0131 33.318 40.7852 33.2874 40.3591C33.0403 36.9585 31.5622 34.8569 30.2572 33.0026C29.1454 31.4238 28.1862 30.0598 28.1862 28.125C28.1862 27.7294 27.9623 27.3682 27.6083 27.1923C27.2564 27.0152 26.8312 27.055 26.5169 27.294C24.5191 28.8035 22.8529 31.3446 22.271 33.7706C21.974 35.0147 21.8703 36.3605 21.8337 37.4672C21.1114 36.6901 20.8876 35.2497 20.8856 35.2303C20.8389 34.8957 20.6334 34.6037 20.3333 34.4481C20.0353 34.2936 19.6783 34.2895 19.3782 34.444C19.1157 34.5783 16.8097 35.9007 16.6775 40.765C16.6683 40.9298 16.6673 41.0946 16.6673 41.2583C16.6673 43.258 17.3363 45.0806 18.4175 46.555C12.4935 43.997 8.33436 38.1019 8.33436 31.25C8.33436 30.9377 8.33338 30.6265 8.35467 30.2796C8.53366 24.0358 10.5315 20.9395 11.8356 19.5734C12.7449 22.8285 15.1273 27.0835 19.7922 27.0835C20.368 27.0835 20.8339 26.6176 20.8339 26.0418C20.8339 22.5558 20.9122 18.5276 21.844 14.8392C22.9019 10.6605 25.7999 6.14812 29.2981 3.09345C29.879 7.555 32.3091 10.8264 34.8634 14.2634C37.8998 18.3506 41.0389 22.5771 41.5648 29.421L41.6004 29.9194C41.6329 30.3528 41.6665 30.7851 41.6665 31.2499C41.6662 38.1018 37.5071 43.9969 31.5831 46.5549Z" fill="white"/>
</g>
<defs>
<clipPath id="clip0">
<rect width="50" height="50" fill="white"/>
</clipPath>
</defs>
</svg>
