<svg width="50" height="50" viewBox="0 0 50 50" fill="none" xmlns="http://www.w3.org/2000/svg">
<path d="M50 29.6866C50 28.4345 49.5021 27.2678 48.6437 26.4074C49.6167 25.3428 50.1125 23.9157 49.9771 22.4303C49.7333 19.7824 47.3479 17.7074 44.5438 17.7074H31.675C32.3125 15.7719 33.3333 12.2241 33.3333 9.37407C33.3333 4.85532 29.4938 1.04077 27.0833 1.04077C24.9208 1.04077 23.3729 2.25952 23.3083 2.30952C23.0604 2.50747 22.9166 2.80747 22.9166 3.12407V10.1886L16.9146 23.1866L16.6666 23.3136V22.9157C16.6666 22.3407 16.1999 21.874 15.6249 21.874H5.2083C2.33545 21.8741 0 24.2095 0 27.0824V43.7491C0 46.622 2.33545 48.9574 5.2083 48.9574H11.4583C13.7104 48.9574 15.6354 47.5199 16.3604 45.5136C18.0938 46.4053 20.4271 46.8741 21.875 46.8741H40.9979C43.2667 46.8741 45.2521 45.3449 45.7188 43.2366C45.9583 42.1491 45.8188 41.0553 45.3438 40.1053C46.8813 39.3324 47.9167 37.7428 47.9167 35.9366C47.9167 35.1991 47.7479 34.4928 47.4292 33.8553C48.9667 33.0803 50 31.4928 50 29.6866ZM45.6063 32.2574C45.2042 32.3053 44.8646 32.5782 44.7355 32.9636C44.6084 33.3491 44.7146 33.7719 45.0105 34.0511C45.5396 34.5491 45.8334 35.2199 45.8334 35.9366C45.8334 37.2511 44.8396 38.3553 43.5251 38.5074C43.123 38.5553 42.7834 38.8282 42.6543 39.2136C42.5272 39.5991 42.6335 40.0219 42.9293 40.3011C43.6147 40.9469 43.8897 41.8532 43.6835 42.7866C43.4272 43.9491 42.298 44.7908 40.998 44.7908H21.875C20.1833 44.7908 17.3458 43.997 16.3625 43.0116C16.0646 42.7158 15.6146 42.6283 15.2271 42.7866C14.8375 42.947 14.5833 43.3283 14.5833 43.7491C14.5833 45.472 13.1812 46.8741 11.4583 46.8741H5.2083C3.48535 46.8741 2.0833 45.472 2.0833 43.7491V27.0824C2.0833 25.3594 3.48535 23.9574 5.2083 23.9574H14.5833V24.9991C14.5833 25.3595 14.7708 25.6949 15.0791 25.8866C15.3833 26.0699 15.7666 26.0886 16.0916 25.9303L18.1749 24.8886C18.3854 24.7844 18.5541 24.6094 18.6541 24.3949L24.9041 10.8532C24.9666 10.7157 24.9999 10.5657 24.9999 10.4157V3.68862C25.4333 3.44907 26.1854 3.12407 27.0833 3.12407C28.225 3.12407 31.25 5.96157 31.25 9.37407C31.25 13.0408 29.2542 18.3261 29.2354 18.3783C29.1146 18.697 29.1562 19.0575 29.35 19.3408C29.5458 19.622 29.8667 19.7908 30.2083 19.7908H44.5438C46.2812 19.7908 47.7562 21.0345 47.9021 22.622C48.0125 23.8095 47.4416 24.9387 46.4188 25.57C46.1 25.7658 45.9104 26.12 45.925 26.497C45.9396 26.8741 46.1562 27.2116 46.4896 27.3845C47.3708 27.8325 47.9166 28.7158 47.9166 29.6866C47.9167 31.0011 46.9229 32.1053 45.6063 32.2574Z" fill="white"/>
<path d="M15.625 23.9592C15.05 23.9592 14.5833 24.4259 14.5833 25.0009V43.7509C14.5833 44.3259 15.05 44.7926 15.625 44.7926C16.2 44.7926 16.6667 44.3259 16.6667 43.7509V25.0009C16.6667 24.4259 16.2 23.9592 15.625 23.9592Z" fill="white"/>
</svg>
