<svg width="50" height="50" viewBox="0 0 50 50" fill="none" xmlns="http://www.w3.org/2000/svg">
<g clip-path="url(#clip0)">
<path d="M48.5352 23.5352C47.7262 23.5352 47.0704 24.191 47.0704 25C47.0704 37.1696 37.1697 47.0702 25.0002 47.0702C12.8306 47.0702 2.93001 37.1696 2.93001 25C2.93001 12.8304 12.8306 2.92982 25.0002 2.92982C28.711 2.92982 32.3207 3.8512 35.543 5.60686L33.7117 7.43819C33.2927 7.85714 33.1674 8.48711 33.3941 9.03457C33.6208 9.58193 34.1549 9.93886 34.7474 9.93886H41.7564C42.5654 9.93886 43.2213 9.28301 43.2213 8.47403V1.46499C43.2213 0.872511 42.8644 0.338432 42.317 0.111675C41.7694 -0.115179 41.1395 0.0102112 40.7206 0.429252L37.6916 3.45824C33.8548 1.19292 29.4926 0.000250328 25.0001 0.000250328C18.3224 0.000250328 12.0443 2.60072 7.32247 7.32247C2.60062 12.0444 0.000244141 18.3224 0.000244141 25.0001C0.000244141 31.6778 2.60062 37.9558 7.32247 42.6776C12.0444 47.3996 18.3224 50.0001 25.0001 50.0001C31.6778 50.0001 37.9558 47.3996 42.6776 42.6776C47.3996 37.9558 49.9999 31.6778 49.9999 25.0001C50 24.191 49.3442 23.5352 48.5352 23.5352Z" fill="white"/>
<path d="M34.4142 23.5346H26.4651V15.5854C26.4651 14.7765 25.8092 14.1206 25.0002 14.1206C24.1913 14.1206 23.5354 14.7765 23.5354 15.5854V24.9994C23.5354 25.8084 24.1913 26.4643 25.0002 26.4643H34.4142C35.2231 26.4643 35.879 25.8084 35.879 24.9994C35.879 24.1905 35.2231 23.5346 34.4142 23.5346Z" fill="white"/>
</g>
<defs>
<clipPath id="clip0">
<rect width="50" height="50" fill="white"/>
</clipPath>
</defs>
</svg>
