<svg width="50" height="50" viewBox="0 0 50 50" fill="none" xmlns="http://www.w3.org/2000/svg">
<path d="M44.043 14.0081V13.2812C44.043 5.95791 38.1288 0 30.8594 0C27.2157 0 23.9128 1.49697 21.5241 3.9123C20.3325 3.33057 19.0236 3.02734 17.6758 3.02734C12.8295 3.02734 8.88672 6.97012 8.88672 11.8164C8.88672 14.0655 9.73633 16.1196 11.1309 17.6758H0V32.3232H11.1309C9.73633 33.8804 8.88672 35.9345 8.88672 38.1836C8.88672 43.0299 12.8295 46.9727 17.6758 46.9727C19.0236 46.9727 20.3325 46.6694 21.5241 46.0877C23.9128 48.503 27.2157 50 30.8594 50C38.1288 50 44.043 44.0421 44.043 36.7188V35.9919C47.63 33.6289 50 29.5843 50 25C50 20.4157 47.63 16.3711 44.043 14.0081ZM36.7188 35.2539H33.7891V38.1836H36.7188C38.2486 38.1836 39.7186 37.9246 41.0874 37.45C40.7145 42.8179 36.2698 47.0703 30.8594 47.0703C25.2054 47.0703 20.6055 42.4267 20.6055 36.7188H17.6758C17.6758 39.279 18.3994 41.672 19.6503 43.7022C19.0224 43.9269 18.3566 44.043 17.6758 44.043C14.4449 44.043 11.8164 41.4145 11.8164 38.1836C11.8164 34.9527 14.4449 32.3242 17.6758 32.3242H22.0703C22.878 32.3242 23.5352 32.9813 23.5352 33.7891H26.4648C26.4648 31.3659 24.4935 29.3945 22.0703 29.3945H2.92969V20.6055H22.0703C24.4935 20.6055 26.4648 18.6341 26.4648 16.2109H23.5352C23.5352 17.0187 22.878 17.6758 22.0703 17.6758H17.6758C14.4449 17.6758 11.8164 15.0473 11.8164 11.8164C11.8164 8.58555 14.4449 5.95703 17.6758 5.95703C18.3566 5.95703 19.0224 6.07314 19.6503 6.29775C18.3994 8.32803 17.6758 10.721 17.6758 13.2812H20.6055C20.6055 7.57334 25.2054 2.92969 30.8594 2.92969C36.2698 2.92969 40.7145 7.18213 41.0874 12.55C39.7186 12.0754 38.2486 11.8164 36.7188 11.8164H33.7891V14.7461H36.7188C42.4266 14.7461 47.0703 19.346 47.0703 25C47.0703 30.654 42.4266 35.2539 36.7188 35.2539Z" fill="white"/>
</svg>
