<svg width="18" height="18" viewBox="0 0 18 18" fill="none" xmlns="http://www.w3.org/2000/svg">
<path d="M9.00123 0C6.42979 0 4.32776 2.10203 4.32776 4.67348C4.32776 7.24492 6.42979 9.34695 9.00123 9.34695C11.5727 9.34695 13.6747 7.24492 13.6747 4.67348C13.6747 2.10203 11.5727 0 9.00123 0Z" fill="black"/>
<path d="M17.0217 13.0815C16.8993 12.7754 16.736 12.4897 16.5523 12.2244C15.6136 10.8366 14.1646 9.91824 12.5319 9.69375C12.3279 9.67336 12.1034 9.71414 11.9401 9.8366C11.083 10.4693 10.0626 10.7958 9.00132 10.7958C7.94007 10.7958 6.91968 10.4693 6.06254 9.8366C5.89925 9.71414 5.67476 9.65293 5.4707 9.69375C3.83804 9.91824 2.36867 10.8366 1.45031 12.2244C1.26664 12.4897 1.10336 12.7958 0.980934 13.0815C0.919723 13.204 0.940113 13.3468 1.00132 13.4693C1.16461 13.755 1.36867 14.0407 1.55234 14.2856C1.83804 14.6734 2.14418 15.0203 2.49113 15.3468C2.77683 15.6325 3.10336 15.8978 3.42992 16.1632C5.04214 17.3673 6.98093 17.9999 8.98093 17.9999C10.9809 17.9999 12.9197 17.3672 14.5319 16.1632C14.8585 15.9183 15.185 15.6325 15.4707 15.3468C15.7973 15.0203 16.1238 14.6734 16.4095 14.2856C16.6136 14.0203 16.7973 13.755 16.9605 13.4693C17.0625 13.3468 17.0829 13.2039 17.0217 13.0815Z" fill="black"/>
</svg>
