<svg width="30" height="30" viewBox="0 0 30 30" fill="none" xmlns="http://www.w3.org/2000/svg">
<g clip-path="url(#clip0)">
<path d="M7.31477 8.80989V7.97123C7.31477 7.72851 7.118 7.53174 6.87528 7.53174C6.63257 7.53174 6.43579 7.72851 6.43579 7.97123V8.80989C6.43579 9.05261 6.63257 9.24938 6.87528 9.24938C7.118 9.24938 7.31477 9.05261 7.31477 8.80989Z" fill="black"/>
<path d="M11.321 9.24938C11.5637 9.24938 11.7605 9.05261 11.7605 8.80989V7.97123C11.7605 7.72851 11.5637 7.53174 11.321 7.53174C11.0783 7.53174 10.8815 7.72851 10.8815 7.97123V8.80989C10.8815 9.05261 11.0783 9.24938 11.321 9.24938Z" fill="black"/>
<path d="M23.6098 7.49023H23.2606C23.0179 7.49023 22.8211 7.68701 22.8211 7.92972V8.74201C22.8211 8.98473 23.0179 9.1815 23.2606 9.1815C23.5033 9.1815 23.7001 8.98473 23.7001 8.74201V8.35995C23.8995 8.31835 24.0493 8.1415 24.0493 7.92972C24.0493 7.68701 23.8526 7.49023 23.6098 7.49023Z" fill="black"/>
<path d="M18.9545 9.1815C19.1972 9.1815 19.3939 8.98473 19.3939 8.74201V7.92972C19.3939 7.68701 19.1972 7.49023 18.9545 7.49023H18.6052C18.3625 7.49023 18.1657 7.68701 18.1657 7.92972C18.1657 8.1415 18.3155 8.31829 18.515 8.35995V8.74201C18.515 8.98473 18.7117 9.1815 18.9545 9.1815Z" fill="black"/>
<path d="M6.37555 23.1482C7.12093 23.1482 7.7273 22.5417 7.7273 21.7964C7.7273 21.5537 7.53053 21.3569 7.28781 21.3569C7.0451 21.3569 6.84833 21.5537 6.84833 21.7964C6.84833 22.0571 6.6362 22.2692 6.37555 22.2692C6.11485 22.2692 5.90272 22.0571 5.90272 21.7964C5.90272 21.5537 5.70595 21.3569 5.46323 21.3569C5.22052 21.3569 5.02374 21.5537 5.02374 21.7964C5.02374 22.5418 5.63018 23.1482 6.37555 23.1482Z" fill="black"/>
<path d="M4.27872 19.2231C4.03601 19.2231 3.83923 19.4199 3.83923 19.6626V20.4537C3.83923 20.6964 4.03601 20.8932 4.27872 20.8932C4.52144 20.8932 4.71821 20.6964 4.71821 20.4537V19.6626C4.71821 19.4199 4.52144 19.2231 4.27872 19.2231Z" fill="black"/>
<path d="M8.47232 20.8932C8.71504 20.8932 8.91181 20.6964 8.91181 20.4537V19.6626C8.91181 19.4199 8.71504 19.2231 8.47232 19.2231C8.22961 19.2231 8.03284 19.4199 8.03284 19.6626V20.4537C8.03284 20.6964 8.22961 20.8932 8.47232 20.8932Z" fill="black"/>
<path d="M24.3354 21.3428C24.0927 21.3428 23.8959 21.5395 23.8959 21.7823C23.8959 22.0639 23.6668 22.293 23.3852 22.293C23.1036 22.293 22.8745 22.0639 22.8745 21.7823C22.8745 21.5395 22.6777 21.3428 22.435 21.3428C22.1923 21.3428 21.9955 21.5395 21.9955 21.7823C21.9955 22.5486 22.6189 23.172 23.3852 23.172C24.1515 23.172 24.7749 22.5486 24.7749 21.7823C24.7749 21.5395 24.5781 21.3428 24.3354 21.3428Z" fill="black"/>
<path d="M25.9235 19.1201H25.5692C25.3265 19.1201 25.1298 19.3169 25.1298 19.5596V20.3836C25.1298 20.6263 25.3265 20.8231 25.5692 20.8231C25.812 20.8231 26.0087 20.6263 26.0087 20.3836V19.9908C26.2107 19.9512 26.363 19.7732 26.363 19.5596C26.363 19.3169 26.1662 19.1201 25.9235 19.1201Z" fill="black"/>
<path d="M21.2011 19.1201H20.8468C20.6041 19.1201 20.4073 19.3169 20.4073 19.5596C20.4073 19.7732 20.5596 19.9512 20.7616 19.9908V20.3836C20.7616 20.6263 20.9583 20.8231 21.2011 20.8231C21.4438 20.8231 21.6405 20.6263 21.6405 20.3836V19.5596C21.6405 19.3169 21.4438 19.1201 21.2011 19.1201Z" fill="black"/>
<path d="M14.9988 26.0195C15.7101 26.0195 16.2888 25.4409 16.2888 24.7295C16.2888 24.4868 16.092 24.29 15.8493 24.29C15.6066 24.29 15.4098 24.4868 15.4098 24.7295C15.4098 24.9562 15.2255 25.1405 14.9988 25.1405C14.7721 25.1405 14.5877 24.9562 14.5877 24.7295C14.5877 24.4868 14.3909 24.29 14.1482 24.29C13.9055 24.29 13.7087 24.4868 13.7087 24.7295C13.7087 25.4409 14.2875 26.0195 14.9988 26.0195Z" fill="black"/>
<path d="M13.0439 23.9172C13.2866 23.9172 13.4833 23.7204 13.4833 23.4777V22.7403C13.4833 22.4976 13.2866 22.3008 13.0439 22.3008C12.8011 22.3008 12.6044 22.4976 12.6044 22.7403V23.4777C12.6044 23.7204 12.8011 23.9172 13.0439 23.9172Z" fill="black"/>
<path d="M16.9536 23.9172C17.1963 23.9172 17.3931 23.7204 17.3931 23.4777V22.7403C17.3931 22.4976 17.1963 22.3008 16.9536 22.3008C16.7109 22.3008 16.5141 22.4976 16.5141 22.7403V23.4777C16.5141 23.7204 16.7109 23.9172 16.9536 23.9172Z" fill="black"/>
<path d="M29.4348 20.809C29.6756 20.4837 29.8184 20.0815 29.8184 19.6466C29.8184 18.9518 29.4603 18.3419 28.915 17.9943V16.2986C28.915 14.5535 27.8305 13.0579 26.3006 12.4476C26.4682 12.2369 26.6109 12.0045 26.7242 11.756C26.9267 11.312 27.0337 10.8169 27.0337 10.3242C27.0337 10.1516 27.0207 9.97769 26.9951 9.80741L26.9257 9.34565C27.2542 8.99833 27.456 8.53002 27.456 8.0154C27.456 7.29077 27.056 6.65785 26.4654 6.3256L26.2595 4.95503C26.2595 4.95468 26.2594 4.95433 26.2593 4.95398L26.1838 4.45115C26.0382 3.48146 25.4387 2.63758 24.6036 2.21139C24.3406 1.73153 23.9557 1.3323 23.4825 1.05067C23.2739 0.926443 23.0042 0.995003 22.8801 1.20356C22.7559 1.41217 22.8244 1.6819 23.033 1.80601C23.4035 2.02657 23.6982 2.34804 23.8852 2.73567C23.9307 2.83019 24.0086 2.90526 24.1048 2.94733C24.7415 3.22603 25.205 3.85233 25.3146 4.5817L25.3671 4.93066C25.1092 4.45841 24.8439 4.16243 24.7971 4.10377C24.7937 4.09973 24.7904 4.09557 24.7869 4.09153C24.5546 3.82133 24.1143 3.92599 24.0276 4.2699C23.952 4.56981 23.8214 4.84493 23.6497 5.08354C23.6487 5.08495 23.6476 5.0863 23.6465 5.0877C23.2061 5.69695 22.4913 6.0796 21.7025 6.0796C20.6993 6.0796 16.885 6.0796 16.3485 6.0796V4.71484C16.3485 2.9427 17.7903 1.50094 19.5624 1.50094H21.2734C21.5161 1.50094 21.7129 1.30417 21.7129 1.06145C21.7129 0.818739 21.5161 0.621965 21.2734 0.621965H19.5624C17.3056 0.621965 15.4695 2.45803 15.4695 4.71484V6.51417C15.3653 6.59931 15.2701 6.69483 15.1858 6.79966C15.1285 6.73016 15.0665 6.66482 15.0006 6.60371C15.0064 6.57511 15.0095 6.54552 15.0095 6.51522V3.19427C15.0093 1.43297 13.5763 0 11.815 0H8.28629C6.55657 0 5.11827 1.26965 4.85311 2.92583C3.93394 2.92852 3.18692 3.67706 3.18692 4.59682V6.61208C2.80035 6.97463 2.55822 7.48942 2.55822 8.06C2.55822 9.05301 3.29094 9.87819 4.2441 10.0232C4.41796 10.7445 4.75074 11.4131 5.21455 11.986H4.94043C3.95462 11.986 3.04828 12.5608 2.61946 13.437C1.68498 13.7708 1.06624 14.7138 1.1549 15.7195L1.35531 17.9923C0.667069 18.2776 0.18158 18.9563 0.18158 19.7464C0.18158 20.6898 0.873277 21.4746 1.77616 21.6203C2.10391 22.9674 2.99056 24.0636 4.16277 24.6804V24.7817C4.16277 24.904 4.17314 25.0238 4.19218 25.1407H3.34198C2.16907 25.1407 1.21485 26.0949 1.21485 27.2678V29.5565C1.21485 29.7992 1.41162 29.996 1.65434 29.996H2.75482C2.99753 29.996 3.19431 29.7992 3.19431 29.5565C3.19431 29.3137 2.99753 29.117 2.75482 29.117H2.09383V27.2678C2.09383 26.5795 2.65374 26.0196 3.34198 26.0196H4.53985C4.86085 26.4992 5.35062 26.8292 5.90836 26.9497C6.78159 27.1404 7.70774 26.7913 8.22429 26.0196H9.40898C10.0972 26.0196 10.6571 26.5795 10.6571 27.2678V27.5884C10.2906 27.7849 10.0123 28.1245 9.89681 28.5322C9.89657 28.533 9.89634 28.5339 9.89605 28.5347C9.82971 28.7704 9.83803 28.9402 9.83803 29.117H4.80577C4.56305 29.117 4.36628 29.3137 4.36628 29.5565C4.36628 29.7992 4.56305 29.996 4.80577 29.996H10.2205C10.2393 29.9984 10.2582 30.0001 10.2776 30.0001H19.7199C19.7393 30.0001 19.7582 29.9984 19.7769 29.996H28.1062C28.349 29.996 28.5457 29.7992 28.5457 29.5565V27.2678C28.5457 26.8674 28.4344 26.4926 28.2413 26.1725C28.4769 26.0171 28.6936 25.8259 28.8816 25.6035C29.4975 24.8744 29.7852 23.8809 29.6707 22.8776L29.4348 20.809ZM27.8089 20.7253C27.6052 20.72 27.4253 20.856 27.3732 21.0505C27.3696 21.064 27.3666 21.0778 27.3642 21.0918C27.1456 22.3992 26.2931 23.5269 25.063 24.0905C25.0629 24.0905 25.0629 24.0906 25.0628 24.0906C24.4498 24.3714 23.8053 24.4815 23.1812 24.4506C23.1614 24.4496 23.1418 24.4478 23.1221 24.4466C22.2001 24.3874 21.356 24.0184 20.6953 23.4258C20.9574 22.7032 20.7266 21.8873 20.1254 21.4063C20.1254 19.5823 20.2448 18.6997 19.5837 17.5218C19.6138 17.4368 19.6465 17.355 19.6713 17.2964H20.1713C20.785 18.0806 21.7375 18.5683 22.7849 18.5683H27.9119C28.4887 18.5956 28.9395 19.0677 28.9395 19.6466C28.9394 20.2484 28.4576 20.739 27.8089 20.7253ZM23.392 26.2894C22.7031 26.2894 22.1266 25.7922 22.0026 25.1396C22.0024 25.139 22.0023 25.1383 22.0022 25.1376C22.4545 25.2695 22.9274 25.3349 23.3851 25.3349C23.8311 25.3349 24.319 25.2707 24.7826 25.1328C24.6598 25.7933 24.0806 26.2894 23.392 26.2894ZM19.1476 25.5142C19.1004 25.4877 19.054 25.459 19.0086 25.4284C19.1355 25.1622 19.2376 24.8807 19.3107 24.586C19.6204 24.5333 19.938 24.3912 20.1977 24.1599C20.477 24.3992 20.7792 24.6033 21.0986 24.7719C21.0986 24.8857 21.0972 24.9961 21.1139 25.1407H20.3516C19.9138 25.1406 19.4923 25.277 19.1476 25.5142ZM15.2235 9.27234C15.2494 9.30275 15.2765 9.33217 15.3043 9.36094C15.2348 9.82346 15.1986 10.0068 15.1986 10.3242C15.1986 10.8169 15.3057 11.3119 15.5081 11.756C15.8132 12.425 16.3224 12.9547 16.9337 13.2784C16.7772 13.3834 16.6288 13.5028 16.4911 13.6369C16.0114 14.1043 15.7006 14.7017 15.5921 15.3514H15.1887C14.8649 15.3514 14.5436 15.3907 14.2316 15.4659C14.0716 14.2385 13.1957 13.2334 12.0374 12.885C12.9861 12.1945 13.6723 11.184 13.9522 10.0233C14.4674 9.94482 14.918 9.66741 15.2235 9.27234ZM16.3947 9.92935C16.6685 11.0503 17.3398 12.0618 18.3307 12.753C17.0577 12.7469 15.8641 11.5524 16.1175 9.86466C16.2066 9.89249 16.3136 9.91657 16.3947 9.92935ZM17.8047 19.7107C17.2996 19.7107 16.8469 19.9721 16.5938 20.4101C16.4373 20.681 16.378 20.9843 16.416 21.2795C16.1114 21.1383 15.8043 20.8677 15.5725 20.6265C15.2822 20.3242 14.7679 20.565 14.8193 20.9844C14.8249 21.0302 14.832 21.0738 14.8399 21.1164C14.8524 21.1848 14.8673 21.2497 14.8844 21.3102C14.5453 21.1773 14.2183 20.8892 13.966 20.6265C13.8398 20.4951 13.6356 20.4507 13.4604 20.5339C13.2895 20.6151 13.1898 20.7966 13.2128 20.9844C13.2248 21.0823 13.2422 21.1726 13.2634 21.2562C12.721 20.9821 12.1432 20.3072 11.8778 19.9077C11.7934 19.7801 11.6483 19.7052 11.496 19.711C11.2521 19.7195 11.098 19.8559 10.8313 20.5745C10.809 20.6347 10.7833 20.7077 10.7634 20.7701C10.7634 19.6171 10.7022 19.1597 11.0342 18.4828C11.0342 18.4827 11.0343 18.4827 11.0343 18.4827C11.3525 17.8338 11.9524 17.291 12.7383 17.0803C12.7434 17.079 12.7483 17.0776 12.7534 17.0763C13.0894 16.9884 12.9741 17.0857 13.2696 16.8653C13.4809 16.7081 13.7204 16.5703 13.9841 16.4637C13.9894 16.4616 13.9943 16.4585 13.9995 16.4561C14.3732 16.3072 14.774 16.2303 15.1888 16.2303H15.8805C15.9121 16.2303 15.9432 16.2319 15.9745 16.2327C15.9754 16.2327 15.9762 16.2329 15.977 16.2329C17.1532 16.266 18.1807 16.9054 18.756 17.8484C18.7578 17.8513 18.7596 17.8543 18.7614 17.8573C19.3434 18.8178 19.2466 19.5876 19.2466 20.8099C19.2378 20.7815 19.2288 20.7533 19.2195 20.7251C19.0316 20.1563 18.5201 19.7624 17.9248 19.7154C17.8851 19.7123 17.8451 19.7107 17.8047 19.7107ZM11.9612 14.5781C11.9608 14.576 11.9603 14.574 11.9598 14.572C11.8882 14.2618 11.7723 13.9633 11.6138 13.6822C12.5911 13.8931 13.3331 14.7442 13.3777 15.7729C13.1558 15.8823 12.9032 16.0398 12.7142 16.183C12.4814 16.2304 12.2582 16.3007 12.046 16.3899C12.0459 15.2689 12.0677 15.0436 11.9612 14.5781ZM18.6656 13.632H19.9232C19.8609 13.7342 19.8038 13.8406 19.7528 13.9513C18.954 14.3652 18.3553 15.1069 18.038 15.941C17.5767 15.6684 17.0416 15.4739 16.4776 15.3941C16.6939 14.3785 17.587 13.632 18.6656 13.632ZM10.0939 23.0041C9.9734 22.4347 10.4043 21.9021 10.979 21.8928C10.9965 21.8925 11.014 21.8924 11.0315 21.8931C11.254 21.903 11.4462 21.745 11.4827 21.5265C11.5126 21.3479 11.5559 21.1727 11.6122 21.0018C12.1637 21.6382 13.119 22.4888 14.1044 22.1985C14.2018 22.1698 14.2852 22.1087 14.3418 22.0268C14.7744 22.2512 15.2398 22.3374 15.7111 22.1985C15.8088 22.1697 15.8924 22.1082 15.949 22.0259C16.392 22.2549 16.8189 22.3148 17.2132 22.1985C17.4875 22.1177 17.6126 21.8002 17.4679 21.5542C17.3604 21.3711 17.181 21.1509 17.3548 20.8498C17.597 20.4308 18.2331 20.5459 18.3839 20.9985C18.4984 21.3596 18.505 21.4972 18.5233 21.5666C18.6228 21.9436 19.0426 21.8931 18.966 21.8931C19.5461 21.8931 19.924 22.3084 19.924 22.8124C19.924 23.2915 19.5556 23.686 19.0885 23.7285C18.9643 23.74 18.9156 23.7167 18.8027 23.7562C18.6554 23.8079 18.5419 23.9363 18.5147 24.0985C18.4427 24.5294 18.2929 24.9393 18.0695 25.3168C18.0635 25.3269 18.0595 25.3377 18.0544 25.3481C17.6894 25.956 17.1508 26.4397 16.5102 26.7378C16.5005 26.7414 16.4907 26.7446 16.4812 26.7489C16.0117 26.964 15.5052 27.0709 14.9989 27.0709C14.9988 27.0709 14.9987 27.0709 14.9987 27.0709C14.5035 27.0709 14.0017 26.9694 13.5272 26.754C13.5193 26.7505 13.5111 26.748 13.5031 26.7449C12.46 26.2657 11.6831 25.2966 11.4827 24.0984C11.4472 23.8859 11.2632 23.7314 11.0494 23.7314C11.0435 23.7314 11.0374 23.7315 11.0314 23.7318C11.019 23.7322 11.0064 23.7328 10.9938 23.7328C10.5521 23.7329 10.1824 23.4199 10.0939 23.0041ZM13.8071 27.7887C14.1991 27.8967 14.6006 27.9499 14.9987 27.9499C15.4081 27.9499 15.8105 27.8946 16.2035 27.785C16.0982 28.3574 15.5963 28.7824 15.0049 28.7824C14.4138 28.7823 13.9134 28.3575 13.8071 27.7887ZM18.4556 26.3054C18.3082 26.5946 18.2245 26.9215 18.2245 27.2677V27.4055H17.1392C17.6459 27.1283 18.0928 26.754 18.4556 26.3054ZM28.0359 16.2986V17.6893H27.9213H22.7848C21.9601 17.6893 21.2157 17.2781 20.7715 16.6283C20.7681 16.6227 20.7654 16.6167 20.7616 16.6112C20.6033 16.3763 20.4884 16.1195 20.42 15.8479C20.3329 15.5018 19.892 15.3998 19.6607 15.6684C19.3871 15.9862 19.1544 16.341 18.9791 16.6956C18.9181 16.6304 18.8266 16.5401 18.778 16.4947C19.0236 15.6617 19.5696 14.992 20.2723 14.676C20.3767 14.629 20.4587 14.5431 20.5007 14.4366C20.6805 13.9814 21.0027 13.5936 21.4714 13.3202C21.4715 13.3202 21.4717 13.3201 21.4718 13.32C21.4719 13.32 21.472 13.32 21.472 13.3199C21.4884 13.3106 21.5053 13.3017 21.5267 13.2903H21.5268C22.0727 13.0173 22.3795 13.0323 22.7736 13.0323H22.7742H24.7696C24.7763 13.0323 24.7831 13.0328 24.7899 13.0328C26.5732 13.0437 28.0359 14.4974 28.0359 16.2986ZM24.5913 12.1533C25.1584 11.5693 25.593 10.8264 25.8102 9.96767C25.8135 9.95478 25.8174 9.94224 25.8206 9.92935C25.9212 9.91353 26.0191 9.8895 26.114 9.8588C26.2655 10.8675 25.9118 11.6801 25.3367 12.1927C25.0113 12.1477 24.7578 12.1533 24.5913 12.1533ZM25.4751 9.07264C25.4134 9.07018 25.3539 9.08113 25.2991 9.10241C25.1584 9.15702 25.0505 9.28201 25.0242 9.43923C24.8757 10.3271 24.416 11.1614 23.7192 11.7702C23.7163 11.7727 23.7138 11.7757 23.7109 11.7783C23.5527 11.9154 23.3827 12.0409 23.202 12.1532C22.5424 12.1532 22.4186 12.1465 22.1634 12.1792C22.1606 12.1795 22.1578 12.1798 22.155 12.1801C22.1543 12.1802 22.1538 12.1804 22.1531 12.1805C21.6394 12.248 21.1609 12.4408 20.7535 12.7342C18.956 12.5734 17.4851 11.1994 17.1907 9.43917C17.1552 9.22669 16.9712 9.07217 16.7575 9.07217C16.5068 9.07217 16.3127 9.03414 16.102 8.89051C15.8221 8.69983 15.6379 8.37877 15.6379 8.01534C15.6379 7.44817 16.0794 6.98553 16.6446 6.95858H21.7022C22.9104 6.95858 23.9913 6.30192 24.5599 5.28829C24.6618 5.46713 24.7487 5.65382 24.8216 5.84603C24.9127 6.08663 24.9814 6.33603 25.0241 6.59158C25.0287 6.61876 25.0356 6.64496 25.0448 6.66998C25.0451 6.67098 25.0453 6.67139 25.0453 6.67133C25.1099 6.84689 25.2813 6.96543 25.4749 6.95823C26.067 6.93479 26.5768 7.40885 26.5768 8.0154C26.577 8.60994 26.0824 9.09684 25.4751 9.07264ZM8.28629 0.878978H11.815C13.0917 0.878978 14.1304 1.91764 14.1304 3.19427V6.07573C7.91735 6.07573 8.20835 6.08341 7.99505 6.05897C7.98462 6.0578 7.97437 6.05628 7.96399 6.05499C6.63592 5.88652 5.64126 4.73183 5.69025 3.38764L5.69049 3.38137C5.69055 3.38043 5.69043 3.3795 5.69043 3.3785C5.74264 1.99147 6.88666 0.878978 8.28629 0.878978ZM4.0659 4.59688C4.0659 4.1714 4.40308 3.82315 4.82428 3.80545C4.84362 4.01136 4.89097 4.26369 4.95689 4.48185C4.64263 4.94794 4.38556 5.5143 4.24439 6.09648C4.18421 6.10556 4.12468 6.11734 4.0659 6.13187V4.59688ZM5.04051 9.53234C5.00395 9.314 4.81104 9.1572 4.5896 9.16569C4.57448 9.16628 4.55936 9.16692 4.54412 9.16692C3.93376 9.16692 3.4372 8.67036 3.4372 8.06C3.4372 7.6828 3.62717 7.34949 3.91612 7.14955C4.12116 7.00763 4.35837 6.94504 4.58901 6.95436C4.81133 6.9635 5.00401 6.80628 5.04051 6.58771C5.10397 6.20822 5.22738 5.81579 5.41543 5.43736C5.95588 6.22416 6.81722 6.78894 7.82512 6.92318C7.84469 6.92582 7.86426 6.92834 7.88395 6.93069C8.1828 6.96526 7.82617 6.95471 13.5892 6.95471H13.6837C14.2794 6.97165 14.759 7.4603 14.759 8.06C14.759 8.67036 14.2625 9.16692 13.6521 9.16692C13.6369 9.16692 13.6217 9.16628 13.6066 9.16569C13.3854 9.15725 13.1922 9.314 13.1557 9.53234C12.9228 10.9252 11.9887 12.0963 10.6938 12.6409C10.1447 12.2341 9.44765 11.986 8.70984 11.986H6.43709C5.69459 11.356 5.20072 10.4903 5.04051 9.53234ZM3.04447 14.2261C3.18452 14.192 3.29896 14.0914 3.35076 13.9569C3.60209 13.3037 4.24094 12.865 4.94043 12.865H6.28034H8.70984C10.0465 12.865 11.1491 13.9443 11.1661 15.2915C11.1662 15.3017 11.1668 15.3117 11.1668 15.322V16.9219C10.8511 17.1829 10.5832 17.4969 10.3751 17.8498H5.72969C4.69109 17.8498 3.7514 17.1955 3.39132 16.2216C3.26873 15.8902 2.83727 15.8395 2.6317 16.1048C2.44026 16.3518 2.26599 16.6348 2.14018 16.8862L2.03048 15.6424C1.97294 14.9896 2.40885 14.3807 3.04447 14.2261ZM2.57263 21.1311C2.53707 20.9186 2.35307 20.7641 2.13936 20.7641C2.13332 20.7641 2.12729 20.7642 2.12125 20.7645C2.10748 20.765 2.09365 20.7656 2.07976 20.7656C1.5178 20.7656 1.06056 20.3084 1.06056 19.7464C1.06056 19.2381 1.435 18.8167 1.92231 18.7406C2.14141 18.7066 2.24595 18.7689 2.41618 18.6302C2.49681 18.5648 2.55435 18.4709 2.57263 18.3617C2.63721 17.9755 2.76214 17.6 2.94075 17.2507C3.55961 18.1579 4.60149 18.7287 5.72975 18.7287H10.0057C9.84911 19.3131 9.88439 19.5955 9.88439 21.3963C9.37792 21.7939 9.11276 22.4415 9.21695 23.0963C8.49765 23.8809 7.4713 24.3461 6.37556 24.3461C4.51858 24.3462 2.8893 23.0248 2.57263 21.1311ZM6.3755 25.2252C6.92346 25.2252 7.33453 25.1378 7.69796 25.0376C7.66057 25.2301 7.58181 25.4081 7.47141 25.5619C7.47089 25.5626 7.47036 25.5633 7.46983 25.564C7.21264 25.9207 6.80603 26.1221 6.38207 26.1221C5.95354 26.1221 5.55061 25.9173 5.29659 25.567C5.29577 25.5658 5.29483 25.5647 5.29401 25.5635C5.1839 25.4107 5.10515 25.2338 5.06723 25.0424C5.47279 25.1579 5.91849 25.2252 6.3755 25.2252ZM9.40903 25.1406H8.57201C8.59112 25.0237 8.60143 24.9039 8.60143 24.7817V24.6702C8.96298 24.4774 9.3001 24.2371 9.60388 23.9533C9.87231 24.2798 10.253 24.5107 10.6866 24.5855C10.9918 25.8168 11.7949 26.8237 12.8583 27.4054H11.5361V27.2677C11.5362 26.0948 10.5819 25.1406 9.40903 25.1406ZM10.7171 29.121V28.9535C10.7171 28.654 10.92 28.3874 11.2113 28.3087C11.2124 28.3084 11.2133 28.3079 11.2143 28.3077C11.2692 28.293 11.3267 28.2845 11.3861 28.2845H13.0336C13.1521 28.6106 13.3476 28.8959 13.5966 29.121H10.7171ZM16.9762 28.2845H18.6114C18.6183 28.2845 18.6249 28.2853 18.6317 28.2855C18.6356 28.2858 18.6394 28.2865 18.6433 28.2866C19.0043 28.3036 19.2804 28.6016 19.2804 28.9535V29.121H16.4131C16.6622 28.8959 16.8576 28.6106 16.9762 28.2845ZM27.6668 29.1169H20.1593V28.9535C20.1593 28.2885 19.7325 27.6977 19.1035 27.4861V27.2677C19.1035 26.5757 19.6699 26.0195 20.3516 26.0195H21.4049C21.8341 26.7632 22.6521 27.2069 23.4913 27.1658C23.5079 27.1651 23.5245 27.164 23.5411 27.1629C23.5442 27.1627 23.5472 27.1625 23.5504 27.1623C24.3439 27.1023 25.0096 26.6603 25.3791 26.0195H26.4187C27.1013 26.0195 27.6668 26.5777 27.6668 27.2677V29.1169H27.6668ZM28.2101 25.0361C28.0421 25.235 27.844 25.3988 27.6284 25.5183C26.9827 25.0705 26.453 25.1407 25.6701 25.1407C25.6707 25.1356 25.6709 25.1304 25.6715 25.1253C25.6875 24.978 25.6854 24.8839 25.6854 24.7631C26.8612 24.1402 27.7421 23.0639 28.1102 21.7719C28.1109 21.7694 28.1116 21.767 28.1123 21.7645C28.1295 21.7041 28.1458 21.6435 28.1606 21.5823C28.3222 21.5573 28.4771 21.512 28.6233 21.4499L28.7975 22.9772C28.8832 23.7296 28.6637 24.4993 28.2101 25.0361Z" fill="black"/>
<path d="M22.6826 9.78964C22.4893 9.93649 22.4505 10.2106 22.5973 10.4038C22.6536 10.4811 22.7543 10.6815 22.7057 10.8074C22.5947 11.0955 22.8082 11.4051 23.1157 11.4051C23.2922 11.4051 23.4587 11.298 23.5259 11.1235C23.7621 10.5107 23.3476 9.93854 23.2996 9.87531C23.1528 9.68205 22.8758 9.64285 22.6826 9.78964Z" fill="black"/>
<path d="M19.5168 9.7912C19.3236 9.64441 19.0479 9.68203 18.901 9.87529C18.853 9.93851 18.4385 10.5107 18.6747 11.1235C18.742 11.2981 18.9084 11.4051 19.0849 11.4051C19.3925 11.4051 19.6059 11.0954 19.4949 10.8074C19.4464 10.6817 19.5466 10.4818 19.603 10.4043C19.7473 10.2111 19.7092 9.93734 19.5168 9.7912Z" fill="black"/>
<path d="M21.8169 9.86084C21.5742 9.86084 21.3774 10.0576 21.3774 10.3003C21.3774 10.4642 21.2441 10.5974 21.0803 10.5974C20.9165 10.5974 20.7832 10.4642 20.7832 10.3003C20.7832 10.0576 20.5864 9.86084 20.3437 9.86084C20.1009 9.86084 19.9042 10.0576 19.9042 10.3003C19.9042 10.9488 20.4318 11.4764 21.0803 11.4764C21.7288 11.4764 22.2564 10.9488 22.2564 10.3003C22.2564 10.0576 22.0596 9.86084 21.8169 9.86084Z" fill="black"/>
<path d="M10.7036 10.7885C10.5926 11.0766 10.806 11.3861 11.1136 11.3861C11.29 11.3861 11.4565 11.2791 11.5238 11.1046C11.76 10.4917 11.3455 9.91952 11.2975 9.85629C11.1508 9.66304 10.8738 9.62377 10.6805 9.77062C10.4873 9.91741 10.4484 10.1915 10.5952 10.3848C10.6515 10.4621 10.7522 10.6624 10.7036 10.7885Z" fill="black"/>
<path d="M7.51471 9.77262C7.32151 9.62589 7.0458 9.66345 6.89889 9.85671C6.8509 9.91993 6.43638 10.4922 6.67259 11.105C6.7398 11.2795 6.90628 11.3865 7.08278 11.3865C7.39042 11.3865 7.60378 11.0769 7.49279 10.7889C7.44433 10.6631 7.54448 10.4634 7.60091 10.3858C7.74523 10.1926 7.70703 9.91876 7.51471 9.77262Z" fill="black"/>
<path d="M10.2541 10.2813C10.2541 10.0386 10.0573 9.8418 9.81463 9.8418C9.57192 9.8418 9.37514 10.0386 9.37514 10.2813C9.37514 10.4451 9.24189 10.5784 9.07805 10.5784C8.91421 10.5784 8.78089 10.4451 8.78089 10.2813C8.78089 10.0386 8.58412 9.8418 8.34141 9.8418C8.09869 9.8418 7.90192 10.0386 7.90192 10.2813C7.90192 10.9298 8.42954 11.4574 9.07805 11.4574C9.72656 11.4574 10.2541 10.9298 10.2541 10.2813Z" fill="black"/>
</g>
<defs>
<clipPath id="clip0">
<rect width="30" height="30" fill="white"/>
</clipPath>
</defs>
</svg>
