<svg width="30" height="30" viewBox="0 0 30 30" fill="none" xmlns="http://www.w3.org/2000/svg">
<path d="M9.08203 0H0.878906C0.393516 0 0 0.393516 0 0.878906V2.92969H9.96094V0.878906C9.96094 0.393516 9.56742 0 9.08203 0Z" fill="black"/>
<path d="M29.5584 8.37826C29.2853 8.22158 28.9492 8.22293 28.6774 8.38195L19.9805 13.4679V9.14062C19.9805 8.82574 19.812 8.53494 19.5389 8.37826C19.2657 8.22158 18.9297 8.22293 18.6579 8.38195L9.96094 13.4679V4.6875H0V29.1211C0 29.6065 0.393516 30 0.878906 30H29.1211C29.6065 30 30 29.6065 30 29.1211V9.14062C30 8.82574 29.8315 8.53494 29.5584 8.37826ZM13.4766 23.8184C13.4766 24.3037 13.083 24.6973 12.5977 24.6973H9.08203C8.59664 24.6973 8.20312 24.3037 8.20312 23.8184V20.3027C8.20312 19.8173 8.59664 19.4238 9.08203 19.4238H12.5977C13.083 19.4238 13.4766 19.8173 13.4766 20.3027V23.8184ZM23.4961 23.8184C23.4961 24.3037 23.1026 24.6973 22.6172 24.6973H19.1016C18.6162 24.6973 18.2227 24.3037 18.2227 23.8184V20.3027C18.2227 19.8173 18.6162 19.4238 19.1016 19.4238H22.6172C23.1026 19.4238 23.4961 19.8173 23.4961 20.3027V23.8184Z" fill="black"/>
</svg>
