<svg width="30" height="30" viewBox="0 0 30 30" fill="none" xmlns="http://www.w3.org/2000/svg">
<g clip-path="url(#clip0)">
<path d="M20.9 23.8393C20.3935 23.844 19.9143 23.6099 19.6072 23.207C19.5042 23.2193 19.4001 23.2212 19.2965 23.213V29.1964L20.5821 28.2322C20.7726 28.0891 21.0347 28.0891 21.2251 28.2322L22.5108 29.1964V23.213C22.4038 23.2219 22.296 23.2198 22.1893 23.207C21.8827 23.6088 21.4051 23.8429 20.9 23.8393Z" fill="black"/>
<path d="M0 24.9107C0 25.7983 0.719605 26.5179 1.60714 26.5179H18.2271V24.375H0L0 24.9107Z" fill="black"/>
<path d="M23.2018 19.5645C23.059 19.5137 22.9441 19.4046 22.8863 19.2647C22.8283 19.1245 22.8322 18.9665 22.8976 18.8294C22.9988 18.617 22.9559 18.3638 22.7901 18.1969C22.624 18.03 22.371 17.9856 22.1581 18.0857C22.0213 18.1511 21.863 18.1553 21.7228 18.0975C21.5824 18.0394 21.4735 17.9246 21.4225 17.7815C21.3443 17.5597 21.1345 17.4111 20.8994 17.4111C20.664 17.4111 20.4542 17.5597 20.376 17.7815C20.3252 17.9246 20.2161 18.0394 20.0759 18.0975C19.9355 18.1553 19.7772 18.1511 19.6404 18.0857C19.4272 17.9853 19.174 18.03 19.0082 18.1969C18.8421 18.3641 18.7992 18.6175 18.9012 18.8299C18.966 18.9667 18.9702 19.1247 18.9122 19.2647C18.8544 19.4046 18.74 19.5134 18.5972 19.5645C18.3751 19.6434 18.2266 19.8538 18.2266 20.0894C18.2266 20.3251 18.3751 20.5354 18.5972 20.6144C18.74 20.6654 18.8546 20.7743 18.9124 20.9145C18.9705 21.0544 18.9663 21.2127 18.9012 21.3495C18.7997 21.5619 18.8426 21.8151 19.0087 21.982C19.1745 22.1489 19.4275 22.1933 19.6404 22.0931C19.7772 22.0277 19.9355 22.0236 20.0759 22.0814C20.2161 22.1394 20.3252 22.2543 20.376 22.3974C20.4542 22.6192 20.664 22.7678 20.8994 22.7678C21.1345 22.7678 21.3443 22.6192 21.4225 22.3974C21.4735 22.2543 21.5824 22.1394 21.7228 22.0814C21.863 22.0236 22.0213 22.0277 22.1581 22.0931C22.371 22.1933 22.624 22.1489 22.7901 21.982C22.9559 21.8151 22.9988 21.5619 22.8976 21.3495C22.8322 21.2124 22.8283 21.0544 22.8863 20.9142C22.9441 20.7743 23.059 20.6652 23.2018 20.6144C23.4234 20.5349 23.5714 20.3249 23.5714 20.0894C23.5714 19.854 23.4234 19.644 23.2018 19.5645Z" fill="black"/>
<path d="M4.28574 2.41085V23.3037H18.2271V22.7086C17.8852 22.3563 17.7228 21.8674 17.7858 21.3806C17.3875 21.0706 17.1546 20.594 17.1546 20.0894C17.1546 19.5848 17.3875 19.1082 17.7858 18.7983C17.7225 18.2981 17.8939 17.7967 18.2499 17.4396C18.6059 17.0826 19.1068 16.9099 19.6072 16.9717C19.9164 16.5728 20.3925 16.3394 20.8971 16.3394C21.4016 16.3394 21.878 16.5728 22.1872 16.9717C22.6876 16.9097 23.1885 17.0823 23.5448 17.4394C23.9008 17.7967 24.0719 18.2981 24.0085 18.7983C24.4069 19.1082 24.6397 19.5848 24.6397 20.0894C24.6397 20.594 24.4069 21.0706 24.0085 21.3806C24.0705 21.8603 23.9131 22.3424 23.5801 22.6929V26.4194C23.7488 26.4819 23.9272 26.5151 24.1072 26.518C24.9947 26.518 25.7143 25.7984 25.7143 24.9109V2.41085C25.7156 2.24397 25.7324 2.0776 25.7648 1.91359C25.7742 1.86285 25.7899 1.81471 25.8022 1.76475C25.8286 1.65567 25.8621 1.54843 25.9019 1.44327C25.9228 1.38991 25.9453 1.33943 25.9693 1.28789C26.0151 1.19033 26.0664 1.09563 26.1237 1.00408C26.1514 0.959089 26.177 0.913574 26.2087 0.870675C26.2239 0.848703 26.2351 0.824637 26.2511 0.803711H5.89288C5.00534 0.803711 4.28574 1.52332 4.28574 2.41085ZM23.0357 13.6609H13.9286V12.5894H23.0357V13.6609ZM23.0357 10.9823H10.7143V9.91085H23.0357V10.9823ZM16.6072 4.018H18.75V5.08943H16.6072V4.018ZM11.25 4.018H15.5357V5.08943H11.25V4.018ZM9.64288 6.69657H20.3572V7.768H9.64288V6.69657ZM6.96431 9.91085H9.64288V10.9823H6.96431V9.91085ZM6.96431 12.5894H12.8572V13.6609H6.96431V12.5894ZM6.96431 15.268H17.6786V16.3394H6.96431V15.268ZM6.96431 17.9466H16.0715V19.018H6.96431V17.9466Z" fill="black"/>
<path d="M28.3929 0.803711C27.5053 0.803711 26.7857 1.52332 26.7857 2.41085V2.94657H30V2.41085C30 1.52332 29.2804 0.803711 28.3929 0.803711Z" fill="black"/>
</g>
<defs>
<clipPath id="clip0">
<rect width="30" height="30" fill="white"/>
</clipPath>
</defs>
</svg>
