<svg width="30" height="30" viewBox="0 0 30 30" fill="none" xmlns="http://www.w3.org/2000/svg">
<g clip-path="url(#clip0)">
<path d="M20.2943 13.2358C20.7809 13.2358 21.1767 12.84 21.1767 12.3534V8.82324H15.8824V15.883C15.8824 16.3696 16.2782 16.7654 16.7648 16.7654C17.2513 16.7654 17.6472 16.3696 17.6472 15.883C17.6472 15.2633 17.6472 11.4283 17.6472 10.5887H19.412V12.3534C19.412 12.84 19.8078 13.2358 20.2943 13.2358Z" fill="black"/>
<path d="M22.9415 8.82326V12.3535C22.9415 14.1818 21.1252 15.4569 19.412 14.8495V15.883C19.412 17.3427 18.2245 18.5302 16.7648 18.5302C15.3051 18.5302 14.1176 17.3427 14.1176 15.883V8.82326C11.7709 8.82308 3.6643 8.82444 3.5033 8.82326C2.43766 10.7578 1.88364 12.9214 1.89023 15.1661C1.91164 22.4342 7.81436 28.3563 15.2155 28.2347C22.2879 28.1206 28.1098 22.3657 28.1098 15.1266C28.1098 12.8963 27.5557 10.7462 26.4966 8.82326C26.3423 8.82438 23.8667 8.82308 22.9415 8.82326Z" fill="black"/>
<path d="M25.6859 25.4727C24.4129 26.787 22.9428 27.8359 21.3232 28.5971L21.9521 29.2261C22.9843 30.2582 24.6636 30.2582 25.6957 29.2261C26.7279 28.194 26.7279 26.5145 25.6957 25.4824L25.6859 25.4727Z" fill="black"/>
<path d="M3.87969 25.0244L3.4219 25.4822C2.3898 26.5143 2.3898 28.1937 3.4219 29.2258C4.45401 30.258 6.13343 30.2579 7.1656 29.2258L8.08093 28.3104C6.54074 27.5029 5.1141 26.4081 3.87969 25.0244Z" fill="black"/>
<path d="M10.588 0H12.3528V1.76478H10.588V0Z" fill="black"/>
<path d="M14.1177 0H15.8825V1.76478H14.1177V0Z" fill="black"/>
<path d="M3.52891 7.05886H14.1176V3.5293H3.52891C2.55428 3.5293 1.76413 4.31945 1.76413 5.29408C1.76413 6.26871 2.55428 7.05886 3.52891 7.05886Z" fill="black"/>
<path d="M15.8824 3.52948V7.05904H21.1767V3.91549L25.1441 1.64845L24.2685 0.116211L18.2953 3.52948H15.8824Z" fill="black"/>
<path d="M22.9416 7.05886H26.4712C27.4458 7.05886 28.236 6.26871 28.236 5.29408C28.236 4.31945 27.4458 3.5293 26.4712 3.5293H22.9416V7.05886Z" fill="black"/>
</g>
<defs>
<clipPath id="clip0">
<rect width="30" height="30" fill="white"/>
</clipPath>
</defs>
</svg>
