<svg width="30" height="30" viewBox="0 0 30 30" fill="none" xmlns="http://www.w3.org/2000/svg">
<g clip-path="url(#clip0)">
<path d="M28.8546 5.5485L10.4811 1.66014C9.70371 1.49568 8.93321 1.9972 8.76875 2.77456L8.41968 5.01781L29.6197 9.50407L29.9687 7.26082C30.1332 6.48375 29.632 5.71301 28.8546 5.5485Z" fill="black"/>
<path d="M21.128 9.9797C20.9134 9.20685 20.1058 8.75003 19.3332 8.9643L15.8452 9.93259L7.6225 8.19238L6.71818 12.4652L1.06795 14.0334C0.295398 14.2478 -0.161419 15.0554 0.0528472 15.828L3.23708 27.3025C3.45169 28.0751 4.25939 28.5322 5.03195 28.3176L23.2972 23.2488C24.0697 23.0342 24.5265 22.2268 24.3123 21.4539L23.7657 19.4841L25.8142 19.9172C26.5916 20.082 27.362 19.5804 27.5265 18.8031L28.8225 12.6787L21.4438 11.1173L21.128 9.9797ZM23.2374 15.8115L23.6891 13.6766C23.757 13.3569 24.0739 13.1507 24.3935 13.2182L26.5285 13.6703C26.8484 13.7381 27.0546 14.0547 26.9871 14.3747L26.5354 16.5096C26.4675 16.8293 26.1506 17.0357 25.831 16.9679L23.696 16.5162C23.3758 16.4481 23.1696 16.1312 23.2374 15.8115ZM1.3858 15.1785L6.44049 13.7762L18.367 10.4666L19.6504 10.11C19.6738 10.1037 19.6972 10.1007 19.72 10.1007C19.823 10.1007 19.9461 10.1682 19.982 10.2976L20.1327 10.8402L20.6048 12.5414L1.821 17.754L1.1982 15.5105C1.15918 15.3697 1.24506 15.2175 1.3858 15.1785ZM23.1669 21.7714C23.1909 21.8585 23.1657 21.9305 23.1402 21.9756C23.115 22.0206 23.0663 22.0794 22.9793 22.1034L4.7144 27.1722C4.69131 27.1785 4.66758 27.1818 4.64474 27.1818C4.5418 27.1818 4.41871 27.114 4.38273 26.9846L2.52546 20.2917L21.3093 15.0788L22.455 19.2067L23.1669 21.7714Z" fill="black"/>
<path d="M7.66567 22.2294C7.57803 21.9142 7.24905 21.7282 6.9339 21.8155L4.8008 22.4077C4.48595 22.495 4.29957 22.8243 4.38722 23.1394L4.97909 25.2722C5.06673 25.5874 5.39571 25.7735 5.71086 25.6858L7.84396 25.0939C8.15911 25.0066 8.34519 24.6773 8.25783 24.3622L7.66567 22.2294Z" fill="black"/>
</g>
<defs>
<clipPath id="clip0">
<rect width="30" height="30" fill="white"/>
</clipPath>
</defs>
</svg>
