<svg width="30" height="30" viewBox="0 0 30 30" fill="none" xmlns="http://www.w3.org/2000/svg">
<g clip-path="url(#clip0)">
<path d="M28.0052 15.3887C27.8845 15.1417 27.8845 14.8585 28.0052 14.6115L29.1241 12.3226C29.7471 11.0481 29.2535 9.5291 28.0004 8.86424L25.7499 7.6701C25.5071 7.54132 25.3406 7.3121 25.2931 7.04145L24.8529 4.53196C24.6078 3.13474 23.3154 2.19584 21.9111 2.39453L19.3884 2.75136C19.1162 2.7898 18.8469 2.70226 18.6494 2.51119L16.8183 0.739793C15.7987 -0.246568 14.2015 -0.246627 13.1819 0.739793L11.3508 2.51136C11.1532 2.7025 10.884 2.78986 10.6117 2.75154L8.08911 2.39471C6.68433 2.1959 5.39235 3.13492 5.14725 4.53213L4.7071 7.04151C4.65958 7.31222 4.49312 7.54137 4.25036 7.67022L1.99979 8.86435C0.746712 9.52915 0.253121 11.0483 0.876086 12.3228L1.99493 14.6117C2.11563 14.8586 2.11563 15.1419 1.99493 15.3888L0.876028 17.6777C0.253063 18.9521 0.746654 20.4712 1.99973 21.136L4.2503 22.3302C4.49312 22.459 4.65958 22.6882 4.7071 22.9588L5.14725 25.4683C5.37038 26.7403 6.46103 27.6323 7.71452 27.6322C7.83798 27.6322 7.96325 27.6235 8.08917 27.6057L10.6118 27.2489C10.8838 27.2102 11.1533 27.298 11.3508 27.489L13.1819 29.2604C13.6918 29.7537 14.3458 30.0002 15.0001 30.0002C15.6542 30.0001 16.3086 29.7535 16.8182 29.2604L18.6494 27.489C18.847 27.298 19.1163 27.2107 19.3884 27.2489L21.9111 27.6057C23.316 27.8044 24.6078 26.8655 24.8529 25.4683L25.2931 22.9589C25.3406 22.6882 25.5071 22.459 25.7499 22.3302L28.0004 21.136C29.2535 20.4712 29.7471 18.9521 29.1241 17.6776L28.0052 15.3887ZM11.5395 7.2139C13.2886 7.2139 14.7117 8.63695 14.7117 10.3861C14.7117 12.1352 13.2886 13.5583 11.5395 13.5583C9.79037 13.5583 8.36731 12.1352 8.36731 10.3861C8.36731 8.63695 9.79037 7.2139 11.5395 7.2139ZM9.90217 21.3214C9.73324 21.4904 9.51182 21.5748 9.29045 21.5748C9.06909 21.5748 8.8476 21.4904 8.67874 21.3214C8.34089 20.9836 8.34089 20.4358 8.67874 20.0979L20.0979 8.67873C20.4357 8.34088 20.9836 8.34088 21.3214 8.67873C21.6593 9.01658 21.6593 9.56437 21.3214 9.90222L9.90217 21.3214ZM18.4606 22.7864C16.7114 22.7864 15.2884 21.3633 15.2884 19.6142C15.2884 17.8651 16.7114 16.442 18.4606 16.442C20.2097 16.442 21.6327 17.8651 21.6327 19.6142C21.6327 21.3633 20.2097 22.7864 18.4606 22.7864Z" fill="black"/>
<path d="M18.4606 18.1719C17.6655 18.1719 17.0187 18.8187 17.0187 19.6137C17.0187 20.4088 17.6655 21.0556 18.4606 21.0556C19.2557 21.0556 19.9025 20.4088 19.9025 19.6137C19.9025 18.8187 19.2557 18.1719 18.4606 18.1719Z" fill="black"/>
<path d="M11.5394 8.94434C10.7443 8.94434 10.0975 9.59115 10.0975 10.3862C10.0975 11.1813 10.7443 11.8281 11.5394 11.8281C12.3345 11.8281 12.9813 11.1813 12.9813 10.3862C12.9813 9.59121 12.3345 8.94434 11.5394 8.94434Z" fill="black"/>
</g>
<defs>
<clipPath id="clip0">
<rect width="30" height="30" fill="white"/>
</clipPath>
</defs>
</svg>
