<svg width="101" height="49" viewBox="0 0 101 49" fill="none" xmlns="http://www.w3.org/2000/svg">
<path d="M0 24.5003C0 25.9555 1.58844 27.1351 3.5482 27.1351H88.9939L66.6113 43.7405C65.9305 44.246 65.5799 44.92 65.5799 45.594C65.5799 46.268 65.9305 46.9421 66.6113 47.4476C67.9935 48.4739 70.242 48.4739 71.6242 47.4476L100.01 26.3538C101.33 25.3734 101.33 23.6271 100.01 22.6314L71.6036 1.55296C70.2214 0.526616 67.9728 0.526616 66.5907 1.55296C65.2085 2.57931 65.2085 4.24904 66.5907 5.27539L88.9526 21.8808H3.52757C1.56781 21.8655 0 23.045 0 24.5003Z" fill="#FF9900"/>
</svg>
