<svg width="18" height="18" viewBox="0 0 18 18" fill="none" xmlns="http://www.w3.org/2000/svg">
<path d="M11.9317 9.092L18 12.9283V5.09375L11.9317 9.092Z" fill="#FF9900"/>
<path d="M0 5.09375V12.9283L6.06825 9.092L0 5.09375Z" fill="#FF9900"/>
<path d="M16.875 2.8125H1.125C0.563627 2.8125 0.118127 3.231 0.0337524 3.76988L9 9.67725L17.9663 3.76988C17.8819 3.231 17.4364 2.8125 16.875 2.8125Z" fill="#FF9900"/>
<path d="M10.9012 9.77163L9.30932 10.8201C9.21482 10.882 9.10795 10.9124 8.99995 10.9124C8.89195 10.9124 8.78507 10.882 8.69057 10.8201L7.0987 9.77051L0.0359497 14.2379C0.122575 14.7723 0.565825 15.1874 1.12495 15.1874H16.8749C17.4341 15.1874 17.8773 14.7723 17.9639 14.2379L10.9012 9.77163Z" fill="#FF9900"/>
</svg>
