<svg width="18" height="18" viewBox="0 0 18 18" fill="none" xmlns="http://www.w3.org/2000/svg">
<path d="M13.1275 0H4.87243C2.18573 0 0 2.18573 0 4.87243V13.1277C0 15.8142 2.18573 18 4.87243 18H13.1277C15.8142 18 18 15.8142 18 13.1277V4.87243C18 2.18573 15.8142 0 13.1275 0V0ZM8.99998 13.9217C6.28609 13.9217 4.07825 11.7139 4.07825 8.99998C4.07825 6.28609 6.28609 4.07825 8.99998 4.07825C11.7139 4.07825 13.9217 6.28609 13.9217 8.99998C13.9217 11.7139 11.7139 13.9217 8.99998 13.9217ZM14.0394 5.23896C13.2374 5.23896 12.5851 4.58665 12.5851 3.78465C12.5851 2.98265 13.2374 2.3302 14.0394 2.3302C14.8414 2.3302 15.4939 2.98265 15.4939 3.78465C15.4939 4.58665 14.8414 5.23896 14.0394 5.23896Z" fill="#FF9900"/>
<path d="M8.99999 5.13281C6.8681 5.13281 5.1335 6.86728 5.1335 8.99931C5.1335 11.1312 6.8681 12.8658 8.99999 12.8658C11.132 12.8658 12.8665 11.1312 12.8665 8.99931C12.8665 6.86728 11.132 5.13281 8.99999 5.13281Z" fill="#FF9900"/>
<path d="M14.0394 3.38574C13.8194 3.38574 13.6403 3.56482 13.6403 3.78482C13.6403 4.00482 13.8194 4.1839 14.0394 4.1839C14.2595 4.1839 14.4386 4.00496 14.4386 3.78482C14.4386 3.56468 14.2595 3.38574 14.0394 3.38574Z" fill="#FF9900"/>
</svg>
