<svg width="30" height="30" viewBox="0 0 30 30" fill="none" xmlns="http://www.w3.org/2000/svg">
<path d="M14.7456 0.923828C9.35509 0.923828 4.96948 5.30943 4.96948 10.6999C4.96948 17.4752 14.7552 29.0488 14.7552 29.0488C14.7552 29.0488 24.5217 17.142 24.5217 10.6999C24.5217 5.30943 20.1363 0.923828 14.7456 0.923828ZM17.6953 13.5624C16.8819 14.3756 15.8139 14.7822 14.7456 14.7822C13.6775 14.7822 12.6091 14.3756 11.7961 13.5624C10.1696 11.9361 10.1696 9.28974 11.7961 7.66325C12.5837 6.87533 13.6314 6.44137 14.7456 6.44137C15.8599 6.44137 16.9073 6.8755 17.6953 7.66325C19.3218 9.28974 19.3218 11.9361 17.6953 13.5624Z" fill="#FF9900"/>
</svg>
