<svg width="26" height="26" viewBox="0 0 26 26" fill="none" xmlns="http://www.w3.org/2000/svg">
<path d="M14.25 8C15.2446 8 16.1984 8.39509 16.9017 9.09835C17.6049 9.80161 18 10.7554 18 11.75C18 12.0815 18.1317 12.3995 18.3661 12.6339C18.6006 12.8683 18.9185 13 19.25 13C19.5816 13 19.8995 12.8683 20.1339 12.6339C20.3683 12.3995 20.5 12.0815 20.5 11.75C20.5 10.0924 19.8416 8.50269 18.6694 7.33058C17.4973 6.15848 15.9076 5.5 14.25 5.5C13.9185 5.5 13.6006 5.6317 13.3661 5.86612C13.1317 6.10054 13 6.41848 13 6.75C13 7.08152 13.1317 7.39946 13.3661 7.63388C13.6006 7.8683 13.9185 8 14.25 8Z" fill="#FF9900"/>
<path d="M14.25 3C16.5706 3 18.7962 3.92187 20.4372 5.56282C22.0781 7.20376 23 9.42936 23 11.75C23 12.0815 23.1317 12.3995 23.3661 12.6339C23.6005 12.8683 23.9185 13 24.25 13C24.5815 13 24.8995 12.8683 25.1339 12.6339C25.3683 12.3995 25.5 12.0815 25.5 11.75C25.5 8.76632 24.3147 5.90483 22.205 3.79505C20.0952 1.68526 17.2337 0.5 14.25 0.5C13.9185 0.5 13.6005 0.631696 13.3661 0.866117C13.1317 1.10054 13 1.41848 13 1.75C13 2.08152 13.1317 2.39946 13.3661 2.63388C13.6005 2.8683 13.9185 3 14.25 3ZM25.1875 17.8875C25.1187 17.6868 25.0001 17.507 24.8426 17.3648C24.6852 17.2227 24.4941 17.1229 24.2875 17.075L16.7875 15.3625C16.5839 15.3163 16.372 15.3219 16.1711 15.3787C15.9703 15.4354 15.7868 15.5416 15.6375 15.6875C15.4625 15.85 15.45 15.8625 14.6375 17.4125C11.9415 16.1702 9.78124 14.0011 8.55 11.3C10.1375 10.5 10.15 10.5 10.3125 10.3125C10.4584 10.1632 10.5646 9.97973 10.6213 9.77886C10.6781 9.57798 10.6837 9.36608 10.6375 9.1625L8.925 1.75C8.87706 1.54337 8.77732 1.35234 8.63518 1.19489C8.49304 1.03744 8.31317 0.918753 8.1125 0.85C7.82058 0.745737 7.51914 0.670376 7.2125 0.625C6.89656 0.551744 6.57417 0.509874 6.25 0.5C4.72501 0.5 3.26247 1.1058 2.18414 2.18414C1.1058 3.26247 0.5 4.72501 0.5 6.25C0.506615 11.3534 2.53686 16.2459 6.1455 19.8545C9.75414 23.4631 14.6466 25.4934 19.75 25.5C20.5051 25.5 21.2528 25.3513 21.9504 25.0623C22.6481 24.7733 23.2819 24.3498 23.8159 23.8159C24.3498 23.2819 24.7733 22.6481 25.0623 21.9504C25.3513 21.2528 25.5 20.5051 25.5 19.75C25.5004 19.4318 25.4753 19.1142 25.425 18.8C25.3725 18.4895 25.293 18.1842 25.1875 17.8875Z" fill="#FF9900"/>
</svg>
