<svg width="30" height="30" viewBox="0 0 30 30" fill="none" xmlns="http://www.w3.org/2000/svg">
<path d="M8.81175 18.5296H3.63222C3.87858 17.6024 4.50911 16.8145 5.3974 16.3702L7.11811 15.5099C8.16275 14.9876 8.8117 13.9376 8.8117 12.7697C8.8117 11.0804 7.43734 9.70605 5.74805 9.70605H4.81658C3.12728 9.70605 1.75293 11.0804 1.75293 12.7697V13.2355H3.51764V12.7697C3.51764 12.0535 4.10034 11.4708 4.81658 11.4708H5.74811C6.46434 11.4708 7.04705 12.0535 7.04705 12.7697C7.04705 13.2649 6.77193 13.7101 6.32899 13.9315L4.60822 14.7919C2.84699 15.6725 1.75293 17.4428 1.75293 19.4119V20.2943H8.81175V18.5296Z" fill="#FF9900"/>
<path d="M14.9882 14.1178H13.7722C12.9831 14.1178 12.3412 13.4759 12.3412 12.6868V9.70605H10.5765V12.6868C10.5765 14.4489 12.0101 15.8825 13.7722 15.8825H14.9882V20.2943H16.753V9.70605H14.9882V14.1178Z" fill="#FF9900"/>
<path d="M24.9481 20.2634L28.2472 9.70605H21.4588V11.4708H25.8469L23.2636 19.737L24.9481 20.2634Z" fill="#FF9900"/>
<path d="M18.5176 14.1172H21.1647V15.8819H18.5176V14.1172Z" fill="#FF9900"/>
<path d="M14.1059 0H15.8706V3.52941H14.1059V0Z" fill="#FF9900"/>
<path d="M10.1024 1.93359L11.8071 1.47654L12.4166 3.74953L10.7119 4.20659L10.1024 1.93359Z" fill="#FF9900"/>
<path d="M6.42981 3.70605L7.95805 2.8237L9.13455 4.8614L7.60631 5.74375L6.42981 3.70605Z" fill="#FF9900"/>
<path d="M3.34081 6.36621L4.58846 5.11856L6.25199 6.78209L5.00434 8.02974L3.34081 6.36621Z" fill="#FF9900"/>
<path d="M17.5653 3.75098L18.1747 1.47798L19.8794 1.93504L19.27 4.20804L17.5653 3.75098Z" fill="#FF9900"/>
<path d="M20.8416 4.8623L22.0181 2.82461L23.5464 3.70696L22.3699 5.74466L20.8416 4.8623Z" fill="#FF9900"/>
<path d="M23.7199 6.78418L25.3835 5.12065L26.6311 6.3683L24.9676 8.03183L23.7199 6.78418Z" fill="#FF9900"/>
<path d="M14.1059 26.4707H15.8706V30.0001H14.1059V26.4707Z" fill="#FF9900"/>
<path d="M10.1052 28.0684L10.7146 25.7954L12.4193 26.2524L11.8099 28.5254L10.1052 28.0684Z" fill="#FF9900"/>
<path d="M6.42942 26.2939L7.60592 24.2562L9.13415 25.1386L7.95765 27.1763L6.42942 26.2939Z" fill="#FF9900"/>
<path d="M3.339 23.6318L5.00253 21.9683L6.25018 23.216L4.58665 24.8795L3.339 23.6318Z" fill="#FF9900"/>
<path d="M17.5678 26.2461L19.2725 25.789L19.8819 28.062L18.1772 28.5191L17.5678 26.2461Z" fill="#FF9900"/>
<path d="M20.8413 25.1377L22.3695 24.2553L23.546 26.293L22.0178 27.1754L20.8413 25.1377Z" fill="#FF9900"/>
<path d="M23.718 23.2178L24.9657 21.9701L26.6292 23.6337L25.3816 24.8813L23.718 23.2178Z" fill="#FF9900"/>
</svg>
