<svg width="25" height="25" viewBox="0 0 25 25" fill="none" xmlns="http://www.w3.org/2000/svg">
<path d="M18.9462 18.5771C17.3463 18.5771 16.0271 19.8683 16.0271 21.4963C16.0271 23.0962 17.3182 24.4154 18.9462 24.4154C20.5461 24.4154 21.8653 23.1242 21.8653 21.4963C21.8373 19.8964 20.5461 18.5771 18.9462 18.5771Z" fill="white"/>
<path d="M24.0827 4.65488C24.0265 4.65488 23.9423 4.62681 23.8581 4.62681H6.17505L5.89436 2.74623C5.72595 1.51122 4.65935 0.584961 3.39628 0.584961H1.12274C0.505231 0.584961 0 1.09019 0 1.7077C0 2.3252 0.505231 2.83043 1.12274 2.83043H3.39628C3.53662 2.83043 3.64889 2.94271 3.67696 3.08305L5.4172 14.9279C5.64175 16.4155 6.93289 17.5383 8.44858 17.5383H20.125C21.5846 17.5383 22.8477 16.4997 23.1564 15.0682L24.9809 5.94602C25.0931 5.35659 24.7002 4.76715 24.0827 4.65488Z" fill="white"/>
<path d="M11.7887 21.3559C11.7325 19.8122 10.4414 18.5771 8.89761 18.5771C7.26964 18.6614 6.03463 20.0086 6.09077 21.6085C6.1469 23.1523 7.40998 24.3873 8.95374 24.3873H9.00988C10.6098 24.3031 11.8729 22.9558 11.7887 21.3559Z" fill="white"/>
</svg>
