<svg width="30" height="18" viewBox="0 0 30 18" fill="none" xmlns="http://www.w3.org/2000/svg">
<path fill-rule="evenodd" clip-rule="evenodd" d="M21.3867 0.270447C23.9877 0.874008 24.9827 2.39493 26.2301 4.48828H21.3867V0.270447ZM6.18622 4.66406C6.69548 4.66406 7.06512 4.90988 7.06512 5.48438C7.06512 5.96892 6.67305 6.36191 6.18874 6.36328H0.878906C0.393448 6.36328 0 6.75696 0 7.24219C0 7.72765 0.393448 8.12109 0.878906 8.12109H8.78906C9.2791 8.12109 9.6714 8.51431 9.6714 9C9.6714 9.48546 9.27795 9.87891 8.7925 9.87891H0.878906C0.393448 9.87891 0 10.2724 0 10.7578C0 11.2433 0.393448 11.6367 0.878906 11.6367H2.8125V14.2734C2.8125 14.7589 3.20595 15.1523 3.69141 15.1523H5.45815C5.77309 16.7037 7.14386 17.8477 8.75977 17.8477C10.3757 17.8477 11.7464 16.7037 12.0614 15.1523H20.9855C21.3004 16.7037 22.6712 17.8477 24.2871 17.8477C25.903 17.8477 27.2738 16.7037 27.5887 15.1523H29.1211C29.6066 15.1523 30 14.7589 30 14.2734V9C30 6.42119 27.28 6.24998 27.2775 6.24609H20.5078C20.0224 6.24609 19.6289 5.85265 19.6289 5.36719V0.09375H3.69141C3.20595 0.09375 2.8125 0.487198 2.8125 0.972656V2.90625H1.75781C1.27235 2.90625 0.878906 3.2997 0.878906 3.78516C0.878906 4.27061 1.27235 4.66406 1.75781 4.66406H6.18622ZM25.4265 13.3391C26.0557 13.9683 26.0557 14.9889 25.4265 15.6181C24.4144 16.6302 22.6758 15.9102 22.6758 14.4785C22.6758 13.0471 24.4144 12.327 25.4265 13.3391ZM9.89914 13.3391C10.5283 13.9683 10.5283 14.9889 9.89914 15.6181C8.88702 16.6302 7.14844 15.9102 7.14844 14.4785C7.14844 13.0471 8.88702 12.327 9.89914 13.3391Z" fill="#FF9900"/>
</svg>
