<svg width="20" height="20" viewBox="0 0 20 20" fill="none" xmlns="http://www.w3.org/2000/svg">
<g clip-path="url(#clip0)">
<path d="M13.5296 8.82357C13.854 8.82357 14.1179 8.55967 14.1179 8.23531V5.88184H10.5883V10.5883C10.5883 10.9128 10.8521 11.1766 11.1765 11.1766C11.5009 11.1766 11.7648 10.9128 11.7648 10.5883C11.7648 10.1752 11.7648 7.61854 11.7648 7.05879H12.9413V8.23531C12.9413 8.55967 13.2052 8.82357 13.5296 8.82357Z" fill="#FF9900"/>
<path d="M15.2944 5.88185V8.23532C15.2944 9.45424 14.0835 10.3043 12.9413 9.89931V10.5884C12.9413 11.5615 12.1497 12.3531 11.1766 12.3531C10.2034 12.3531 9.41178 11.5615 9.41178 10.5884V5.88185C7.84728 5.88173 2.44289 5.88263 2.33555 5.88185C1.62513 7.17151 1.25578 8.61393 1.26017 10.1104C1.27445 14.9558 5.2096 18.9039 10.1437 18.8228C14.8586 18.7467 18.7399 14.9102 18.7399 10.0841C18.7399 8.59718 18.3705 7.16382 17.6644 5.88185C17.5615 5.88259 15.9112 5.88173 15.2944 5.88185Z" fill="#FF9900"/>
<path d="M17.1239 16.9814C16.2753 17.8577 15.2952 18.557 14.2155 19.0644L14.6347 19.4837C15.3228 20.1718 16.4424 20.1718 17.1305 19.4837C17.8186 18.7956 17.8186 17.676 17.1305 16.988L17.1239 16.9814Z" fill="#FF9900"/>
<path d="M2.58644 16.6826L2.28125 16.9878C1.59318 17.6759 1.59318 18.7955 2.28125 19.4836C2.96932 20.1717 4.08893 20.1716 4.77704 19.4836L5.38727 18.8733C4.36048 18.335 3.40938 17.605 2.58644 16.6826Z" fill="#FF9900"/>
<path d="M7.05869 0H8.23521V1.17652H7.05869V0Z" fill="#FF9900"/>
<path d="M9.41183 0H10.5884V1.17652H9.41183V0Z" fill="#FF9900"/>
<path d="M2.35261 4.70656H9.41174V2.35352H2.35261C1.70285 2.35352 1.17609 2.88028 1.17609 3.53004C1.17609 4.17979 1.70285 4.70656 2.35261 4.70656Z" fill="#FF9900"/>
<path d="M10.5883 2.35266V4.7057H14.1178V2.61L16.7628 1.09864L16.179 0.0771484L12.1969 2.35266H10.5883Z" fill="#FF9900"/>
<path d="M15.2944 4.70656H17.6474C18.2972 4.70656 18.824 4.17979 18.824 3.53004C18.824 2.88028 18.2972 2.35352 17.6474 2.35352H15.2944V4.70656Z" fill="#FF9900"/>
</g>
<defs>
<clipPath id="clip0">
<rect width="20" height="20" fill="white"/>
</clipPath>
</defs>
</svg>
