<svg width="28" height="30" viewBox="0 0 28 30" fill="none" xmlns="http://www.w3.org/2000/svg">
<path d="M7.81171 18.5296H2.63218C2.87853 17.6024 3.50906 16.8145 4.39735 16.3702L6.11806 15.5099C7.16271 14.9876 7.81165 13.9376 7.81165 12.7697C7.81165 11.0804 6.4373 9.70605 4.748 9.70605H3.81653C2.12724 9.70605 0.752884 11.0804 0.752884 12.7697V13.2355H2.51759V12.7697C2.51759 12.0535 3.1003 11.4708 3.81653 11.4708H4.74806C5.4643 11.4708 6.047 12.0535 6.047 12.7697C6.047 13.2649 5.77188 13.7101 5.32894 13.9315L3.60818 14.7919C1.84694 15.6725 0.752884 17.4428 0.752884 19.4119V20.2943H7.81171V18.5296Z" fill="#FF9900"/>
<path d="M13.9882 14.1178H12.7721C11.9831 14.1178 11.3412 13.4759 11.3412 12.6868V9.70605H9.57645V12.6868C9.57645 14.4489 11.01 15.8825 12.7721 15.8825H13.9882V20.2943H15.7529V9.70605H13.9882V14.1178Z" fill="#FF9900"/>
<path d="M23.948 20.2634L27.2471 9.70605H20.4588V11.4708H24.8468L22.2636 19.737L23.948 20.2634Z" fill="#FF9900"/>
<path d="M17.5176 14.1172H20.1646V15.8819H17.5176V14.1172Z" fill="#FF9900"/>
<path d="M13.1058 0H14.8705V3.52941H13.1058V0Z" fill="#FF9900"/>
<path d="M9.1024 1.93359L10.8071 1.47654L11.4165 3.74953L9.71183 4.20659L9.1024 1.93359Z" fill="#FF9900"/>
<path d="M5.42976 3.70605L6.958 2.8237L8.1345 4.8614L6.60626 5.74375L5.42976 3.70605Z" fill="#FF9900"/>
<path d="M2.34076 6.36621L3.58841 5.11856L5.25194 6.78209L4.00429 8.02974L2.34076 6.36621Z" fill="#FF9900"/>
<path d="M16.5652 3.75098L17.1746 1.47798L18.8793 1.93504L18.2699 4.20804L16.5652 3.75098Z" fill="#FF9900"/>
<path d="M19.8416 4.8623L21.0181 2.82461L22.5463 3.70696L21.3698 5.74466L19.8416 4.8623Z" fill="#FF9900"/>
<path d="M22.7199 6.78418L24.3834 5.12065L25.6311 6.3683L23.9675 8.03183L22.7199 6.78418Z" fill="#FF9900"/>
<path d="M13.1058 26.4707H14.8705V30.0001H13.1058V26.4707Z" fill="#FF9900"/>
<path d="M9.10516 28.0684L9.71459 25.7954L11.4193 26.2524L10.8099 28.5254L9.10516 28.0684Z" fill="#FF9900"/>
<path d="M5.42937 26.2939L6.60587 24.2562L8.13411 25.1386L6.9576 27.1763L5.42937 26.2939Z" fill="#FF9900"/>
<path d="M2.33896 23.6318L4.00249 21.9683L5.25014 23.216L3.58661 24.8795L2.33896 23.6318Z" fill="#FF9900"/>
<path d="M16.5677 26.2461L18.2724 25.789L18.8819 28.062L17.1771 28.5191L16.5677 26.2461Z" fill="#FF9900"/>
<path d="M19.8412 25.1377L21.3694 24.2553L22.5459 26.293L21.0177 27.1754L19.8412 25.1377Z" fill="#FF9900"/>
<path d="M22.718 23.2178L23.9656 21.9701L25.6292 23.6337L24.3815 24.8813L22.718 23.2178Z" fill="#FF9900"/>
</svg>
