<svg width="26" height="26" viewBox="0 0 26 26" fill="none" xmlns="http://www.w3.org/2000/svg">
<path d="M14.25 8C15.2446 8 16.1984 8.39509 16.9017 9.09835C17.6049 9.80161 18 10.7554 18 11.75C18 12.0815 18.1317 12.3995 18.3661 12.6339C18.6005 12.8683 18.9185 13 19.25 13C19.5815 13 19.8995 12.8683 20.1339 12.6339C20.3683 12.3995 20.5 12.0815 20.5 11.75C20.5 10.0924 19.8415 8.50269 18.6694 7.33058C17.4973 6.15848 15.9076 5.5 14.25 5.5C13.9185 5.5 13.6005 5.6317 13.3661 5.86612C13.1317 6.10054 13 6.41848 13 6.75C13 7.08152 13.1317 7.39946 13.3661 7.63388C13.6005 7.8683 13.9185 8 14.25 8Z" fill="#FF9900"/>
<path d="M14.25 3C16.5706 3 18.7962 3.92187 20.4372 5.56282C22.0781 7.20376 23 9.42936 23 11.75C23 12.0815 23.1317 12.3995 23.3661 12.6339C23.6005 12.8683 23.9184 13 24.25 13C24.5815 13 24.8994 12.8683 25.1339 12.6339C25.3683 12.3995 25.5 12.0815 25.5 11.75C25.5 8.76632 24.3147 5.90483 22.2049 3.79505C20.0951 1.68526 17.2337 0.5 14.25 0.5C13.9184 0.5 13.6005 0.631696 13.3661 0.866117C13.1317 1.10054 13 1.41848 13 1.75C13 2.08152 13.1317 2.39946 13.3661 2.63388C13.6005 2.8683 13.9184 3 14.25 3ZM25.1875 17.8875C25.1187 17.6868 25 17.507 24.8426 17.3648C24.6851 17.2227 24.4941 17.1229 24.2875 17.075L16.7875 15.3625C16.5839 15.3163 16.372 15.3219 16.1711 15.3787C15.9702 15.4354 15.7868 15.5416 15.6375 15.6875C15.4625 15.85 15.45 15.8625 14.6375 17.4125C11.9415 16.1702 9.78121 14.0011 8.54997 11.3C10.1375 10.5 10.15 10.5 10.3125 10.3125C10.4584 10.1632 10.5645 9.97973 10.6213 9.77886C10.6781 9.57798 10.6836 9.36608 10.6375 9.1625L8.92497 1.75C8.87703 1.54337 8.77729 1.35234 8.63515 1.19489C8.49301 1.03744 8.31314 0.918753 8.11247 0.85C7.82055 0.745737 7.51911 0.670376 7.21247 0.625C6.89653 0.551744 6.57414 0.509874 6.24997 0.5C4.72497 0.5 3.26244 1.1058 2.18411 2.18414C1.10577 3.26247 0.499969 4.72501 0.499969 6.25C0.506584 11.3534 2.53683 16.2459 6.14547 19.8545C9.75411 23.4631 14.6466 25.4934 19.75 25.5C20.5051 25.5 21.2528 25.3513 21.9504 25.0623C22.648 24.7733 23.2819 24.3498 23.8158 23.8159C24.3498 23.2819 24.7733 22.6481 25.0623 21.9504C25.3512 21.2528 25.5 20.5051 25.5 19.75C25.5004 19.4318 25.4753 19.1142 25.425 18.8C25.3724 18.4895 25.293 18.1842 25.1875 17.8875Z" fill="#FF9900"/>
</svg>
