<svg width="21" height="30" viewBox="0 0 21 30" fill="none" xmlns="http://www.w3.org/2000/svg">
<path d="M10.7456 0.922852C5.35509 0.922852 0.969482 5.30846 0.969482 10.699C0.969482 17.4743 10.7552 29.0478 10.7552 29.0478C10.7552 29.0478 20.5217 17.1411 20.5217 10.699C20.5217 5.30846 16.1363 0.922852 10.7456 0.922852ZM13.6953 13.5614C12.8819 14.3746 11.8139 14.7812 10.7456 14.7812C9.67753 14.7812 8.60911 14.3746 7.79612 13.5614C6.16962 11.9351 6.16962 9.28877 7.79612 7.66228C8.5837 6.87435 9.63135 6.44039 10.7456 6.44039C11.8599 6.44039 12.9073 6.87452 13.6953 7.66228C15.3218 9.28877 15.3218 11.9351 13.6953 13.5614Z" fill="#FF9900"/>
</svg>
