<svg width="80" height="80" viewBox="0 0 80 80" fill="none" xmlns="http://www.w3.org/2000/svg">
<path d="M76.129 18.7207H3.87097C1.73645 18.7207 0 20.4572 0 22.5917V65.1723C0 67.3068 1.73645 69.0433 3.87097 69.0433H76.129C78.2635 69.0433 80 67.3068 80 65.1723V22.5917C80 20.4572 78.2635 18.7207 76.129 18.7207Z" fill="#FF4F19"/>
<path d="M43.871 62.5918H36.129V69.0434H43.871V62.5918Z" fill="#E3001E"/>
<path d="M74.8741 58.7206V62.5915C74.8741 63.3041 74.2963 63.8819 73.5837 63.8819H6.48698C5.7744 63.8819 5.19666 63.3041 5.19666 62.5915V58.7206L12.9033 54.8496L43.871 56.1399L69.6775 54.8496L74.8741 58.7206Z" fill="#E6BE8A"/>
<path d="M7.00698 60.5023C17.61 56.125 29.6012 56.3914 40.0354 61.3013V14.8497C29.2572 9.7779 16.8178 9.66097 5.96295 14.4987C5.49585 14.7069 5.19666 15.1797 5.19666 15.6911V59.3226C5.19666 60.2547 6.14553 60.8579 7.00698 60.5023Z" fill="#FFEBB7"/>
<path d="M40.0353 61.3013C50.4695 56.3913 62.4607 56.125 73.0637 60.5023C73.9252 60.8579 74.874 60.2547 74.874 59.3226V15.6911C74.874 15.1797 74.5748 14.7069 74.1077 14.4987C63.2529 9.66097 50.8134 9.7779 40.0353 14.8497V61.3013Z" fill="#FFD788"/>
<path d="M45.1965 52.875C44.6472 52.875 44.138 52.5221 43.9654 51.971C43.7525 51.2911 44.1304 50.5666 44.8096 50.3531C46.1151 49.9429 47.4583 49.5926 48.8028 49.311C49.4985 49.1648 50.184 49.6102 50.3301 50.309C50.4762 51.0065 50.0302 51.6902 49.332 51.8363C48.0694 52.101 46.8082 52.4305 45.5833 52.8154C45.4548 52.8555 45.3238 52.875 45.1965 52.875Z" fill="#868491"/>
<path d="M69.7128 52.8743C69.5855 52.8743 69.4544 52.8547 69.326 52.8144C64.4571 51.2854 59.4104 50.7126 54.331 51.1171C53.6102 51.1688 52.9991 50.6428 52.9425 49.9326C52.887 49.222 53.4163 48.6007 54.127 48.5441C59.5478 48.1181 64.9158 48.7242 70.0997 50.3523C70.7789 50.5658 71.157 51.2904 70.9439 51.9702C70.7712 52.5215 70.2621 52.8743 69.7128 52.8743Z" fill="#868491"/>
<path d="M69.7127 47.6981C69.5854 47.6981 69.4543 47.6786 69.3259 47.6383C61.5588 45.1988 53.3506 45.1988 45.5835 47.6383C44.9006 47.8518 44.1772 47.4733 43.9656 46.7941C43.7527 46.1143 44.1306 45.3898 44.8098 45.1762C53.0835 42.578 61.8259 42.578 70.0996 45.1762C70.7788 45.3898 71.1569 46.1143 70.9438 46.7941C70.7711 47.3454 70.2621 47.6981 69.7127 47.6981Z" fill="#868491"/>
<path d="M45.1966 42.5518C44.6472 42.5518 44.138 42.1989 43.9654 41.6477C43.7525 40.9679 44.1304 40.2434 44.8096 40.0298C49.5588 38.5392 54.487 37.9046 59.4517 38.1379C60.1624 38.1719 60.713 38.7761 60.679 39.488C60.6462 40.2013 60.0514 40.7456 59.3282 40.7159C54.6696 40.4961 50.0414 41.0921 45.5832 42.4921C45.4548 42.5322 45.3238 42.5518 45.1966 42.5518Z" fill="#868491"/>
<path d="M69.7128 42.5517C69.5856 42.5517 69.4544 42.5321 69.3261 42.4918C67.6956 41.9796 66.0133 41.5688 64.3261 41.2715C63.6241 41.1473 63.1554 40.4783 63.2803 39.7763C63.4038 39.075 64.0741 38.6057 64.7748 38.7299C66.5717 39.0468 68.3622 39.4841 70.0999 40.0297C70.7791 40.2433 71.1572 40.9678 70.9441 41.6476C70.7712 42.1989 70.2622 42.5517 69.7128 42.5517Z" fill="#868491"/>
<path d="M69.7127 37.3759C69.5854 37.3759 69.4543 37.3564 69.3259 37.316C61.5588 34.8765 53.3506 34.8765 45.5835 37.316C44.9006 37.5283 44.1772 37.1504 43.9656 36.4718C43.7527 35.792 44.1306 35.0675 44.8098 34.8539C53.0835 32.2557 61.8259 32.2557 70.0996 34.8539C70.7788 35.0675 71.1569 35.792 70.9438 36.4718C70.7711 37.0231 70.2621 37.3759 69.7127 37.3759Z" fill="#868491"/>
<path d="M45.1966 32.2142C44.6472 32.2142 44.138 31.8613 43.9654 31.3102C43.7525 30.6304 44.1304 29.9058 44.8096 29.6923C47.4054 28.877 50.0919 28.3113 52.7972 28.0113C53.5155 27.925 54.1443 28.4442 54.2224 29.151C54.3005 29.8592 53.7901 30.4975 53.0821 30.5755C50.543 30.8578 48.019 31.3889 45.5833 32.1544C45.4548 32.1945 45.3238 32.2142 45.1966 32.2142Z" fill="#868491"/>
<path d="M69.7126 32.2142C69.5853 32.2142 69.4542 32.1947 69.3258 32.1544C65.6829 31.0095 61.9002 30.3984 58.0808 30.3385C57.3676 30.3273 56.7994 29.7406 56.8107 29.0281C56.8219 28.3161 57.4445 27.7163 58.1211 27.7579C62.1887 27.8221 66.2197 28.4731 70.0995 29.6921C70.7787 29.9056 71.1567 30.6302 70.9437 31.31C70.7696 31.8613 70.2619 32.2142 69.7126 32.2142Z" fill="#868491"/>
<path d="M45.1966 27.0684C44.6472 27.0684 44.138 26.7155 43.9654 26.1644C43.7525 25.4845 44.1304 24.76 44.8096 24.5465C50.432 22.7805 56.2511 22.2134 62.113 22.8655C62.8212 22.9436 63.3315 23.5818 63.2533 24.29C63.1752 24.9976 62.5502 25.5218 61.8281 25.4297C56.3291 24.8198 50.8617 25.3497 45.5832 27.0086C45.4548 27.0489 45.3238 27.0684 45.1966 27.0684Z" fill="#868491"/>
<path d="M69.7128 27.0677C69.5855 27.0677 69.4544 27.0482 69.326 27.0079C68.507 26.7502 67.6665 26.5165 66.826 26.3118C66.1343 26.1429 65.7096 25.4448 65.8785 24.7524C66.0473 24.06 66.7404 23.6366 67.4385 23.8042C68.3318 24.0223 69.2265 24.2716 70.0997 24.5458C70.7789 24.7594 71.157 25.4839 70.9439 26.1637C70.7712 26.715 70.2622 27.0677 69.7128 27.0677Z" fill="#868491"/>
<path d="M45.1966 21.8919C44.6473 21.8919 44.1381 21.5385 43.9655 20.9872C43.7526 20.3067 44.1305 19.5829 44.811 19.37C45.6981 19.0914 46.5927 18.8425 47.471 18.629C48.159 18.4595 48.8608 18.8854 49.0297 19.5779C49.1985 20.2703 48.7726 20.9683 48.0808 21.1366C47.2568 21.3369 46.4163 21.5706 45.5821 21.832C45.4535 21.8722 45.3239 21.8919 45.1966 21.8919Z" fill="#868491"/>
<path d="M69.7128 21.8916C69.5856 21.8916 69.4544 21.8721 69.326 21.8318C64.0464 20.1729 58.5814 19.6437 53.0811 20.2529C52.3678 20.3399 51.734 19.82 51.6559 19.1132C51.5778 18.405 52.0882 17.7668 52.7962 17.6887C58.6556 17.0366 64.4759 17.6037 70.0996 19.3697C70.7788 19.5832 71.1568 20.3078 70.9438 20.9876C70.7712 21.5387 70.2622 21.8916 69.7128 21.8916Z" fill="#868491"/>
<path d="M10.3579 52.875C9.80852 52.875 9.29948 52.5221 9.12674 51.971C8.91384 51.2911 9.29174 50.5666 9.97093 50.3531C11.2764 49.9429 12.6196 49.5926 13.9642 49.311C14.6609 49.1648 15.3453 49.6102 15.4914 50.309C15.6375 51.0065 15.1916 51.6902 14.4934 51.8363C13.2308 52.101 11.9695 52.4305 10.7446 52.8154C10.6161 52.8555 10.4851 52.875 10.3579 52.875Z" fill="#B4B6BC"/>
<path d="M34.874 52.8743C34.7467 52.8743 34.6156 52.8547 34.4872 52.8144C29.6195 51.2854 24.5716 50.7126 19.4922 51.1171C18.7614 51.1688 18.1603 50.6428 18.1037 49.9326C18.0482 49.222 18.5775 48.6007 19.2882 48.5441C24.709 48.1181 30.0758 48.7242 35.2609 50.3523C35.9401 50.5658 36.3182 51.2904 36.1051 51.9702C35.9324 52.5215 35.4233 52.8743 34.874 52.8743Z" fill="#B4B6BC"/>
<path d="M34.874 47.6981C34.7468 47.6981 34.6156 47.6786 34.4872 47.6383C26.7201 45.1988 18.5119 45.1988 10.7448 47.6383C10.0593 47.8518 9.33854 47.4733 9.12692 46.7941C8.91402 46.1143 9.29192 45.3898 9.97112 45.1762C18.2448 42.578 26.9872 42.578 35.261 45.1762C35.9401 45.3898 36.3182 46.1143 36.1052 46.7941C35.9324 47.3454 35.4234 47.6981 34.874 47.6981Z" fill="#B4B6BC"/>
<path d="M10.3579 42.5518C9.80852 42.5518 9.29948 42.1989 9.12674 41.6477C8.91384 40.9679 9.29174 40.2434 9.97094 40.0298C14.7201 38.5392 19.6521 37.9046 24.613 38.1379C25.3237 38.1719 25.8743 38.7761 25.8403 39.488C25.8063 40.2013 25.2051 40.7456 24.4895 40.7159C19.8297 40.4961 15.2027 41.0921 10.7445 42.4921C10.6161 42.5322 10.4851 42.5518 10.3579 42.5518Z" fill="#B4B6BC"/>
<path d="M34.874 42.5517C34.7468 42.5517 34.6156 42.5321 34.4873 42.4918C32.8568 41.9796 31.1745 41.5688 29.4873 41.2715C28.7853 41.1473 28.3166 40.4783 28.4415 39.7763C28.5637 39.075 29.2366 38.6057 29.936 38.7299C31.7329 39.0468 33.5234 39.4841 35.2611 40.0297C35.9403 40.2433 36.3184 40.9678 36.1053 41.6476C35.9324 42.1989 35.4234 42.5517 34.874 42.5517Z" fill="#B4B6BC"/>
<path d="M10.3579 37.3754C9.80852 37.3754 9.29948 37.0225 9.12674 36.4714C8.91384 35.7916 9.29174 35.0671 9.97093 34.8535C17.3059 32.5508 25.1322 32.2943 32.5982 34.1125C33.2913 34.2814 33.7159 34.9795 33.5471 35.6719C33.3782 36.3637 32.6764 36.7851 31.9884 36.6201C24.9772 34.9108 17.6309 35.1534 10.7446 37.3158C10.6161 37.3559 10.4851 37.3754 10.3579 37.3754Z" fill="#B4B6BC"/>
<path d="M10.3579 32.2142C9.80852 32.2142 9.29948 31.8613 9.12674 31.3102C8.91384 30.6304 9.29174 29.9058 9.97093 29.6923C12.5667 28.877 15.2532 28.3113 17.9585 28.0113C18.6705 27.925 19.3056 28.4442 19.3837 29.151C19.4617 29.8592 18.9514 30.4975 18.2434 30.5755C15.7043 30.8578 13.1803 31.3889 10.7446 32.1544C10.6161 32.1945 10.4851 32.2142 10.3579 32.2142Z" fill="#B4B6BC"/>
<path d="M32.2945 31.4953C32.1937 31.4953 32.0904 31.4834 31.9884 31.4587C29.1281 30.7619 26.1845 30.3845 23.2421 30.3386C22.5289 30.3273 21.9607 29.7406 21.972 29.0281C21.9833 28.3161 22.5402 27.7163 23.2825 27.7579C26.4175 27.8077 29.5513 28.209 32.5983 28.9511C33.2913 29.12 33.716 29.8181 33.5471 30.5105C33.4033 31.1003 32.8754 31.4953 32.2945 31.4953Z" fill="#B4B6BC"/>
<path d="M10.3579 27.0684C9.80852 27.0684 9.29948 26.7155 9.12674 26.1644C8.91384 25.4845 9.29174 24.76 9.97094 24.5465C15.5946 22.7805 21.4137 22.2134 27.2743 22.8655C27.9826 22.9436 28.4929 23.5818 28.4147 24.29C28.3366 24.9976 27.7064 25.5218 26.9895 25.4297C21.4905 24.8198 16.023 25.3497 10.7445 27.0086C10.6161 27.0489 10.4851 27.0684 10.3579 27.0684Z" fill="#B4B6BC"/>
<path d="M10.3579 21.8919C9.80857 21.8919 9.29953 21.5385 9.12679 20.9872C8.91389 20.3067 9.29179 19.5829 9.97228 19.37C10.8594 19.0914 11.754 18.8425 12.6323 18.629C13.319 18.4595 14.0221 18.8854 14.191 19.5779C14.3598 20.2703 13.9339 20.9683 13.2421 21.1366C12.4181 21.3369 11.5776 21.5706 10.7434 21.832C10.6149 21.8722 10.4852 21.8919 10.3579 21.8919Z" fill="#B4B6BC"/>
<path d="M32.2948 21.1722C32.194 21.1722 32.0906 21.1603 31.9887 21.1356C27.4788 20.0374 22.8543 19.7419 18.2424 20.2528C17.5341 20.3398 16.8953 19.8212 16.8172 19.1132C16.7391 18.4049 17.2495 17.7667 17.9575 17.6886C22.868 17.1417 27.7963 17.4593 32.5984 18.628C33.2914 18.7969 33.7161 19.4949 33.5472 20.1874C33.4035 20.777 32.8756 21.1722 32.2948 21.1722Z" fill="#B4B6BC"/>
<path d="M32.2934 34.8487C32.2936 35.3639 32.8678 35.6713 33.2965 35.3855L36.1644 33.4735L39.0323 35.3855C39.461 35.6713 40.0353 35.364 40.0353 34.8487V14.9568C40.0353 14.4471 39.7381 13.9766 39.2723 13.7695C37.2631 12.876 35.1982 12.1594 33.101 11.6053C32.6918 11.4973 32.2897 11.8137 32.2899 12.2369L32.2934 34.8487Z" fill="#5D647F"/>
</svg>
