<svg width="80" height="80" viewBox="0 0 80 80" fill="none" xmlns="http://www.w3.org/2000/svg">
<g clip-path="url(#clip0)">
<path d="M76.3226 40.0028L79.8324 30.8484C80.2173 29.8385 79.9174 28.6936 79.0724 28.0086L71.4629 21.8391L69.923 12.1547C69.7531 11.0848 68.9131 10.2498 67.8432 10.0799L58.1588 8.53996L51.9943 0.925476C51.3143 0.0805338 50.1444 -0.219446 49.1595 0.165528L40.0001 3.68029L30.8457 0.170528C29.8308 -0.219446 28.6959 0.0905331 28.0109 0.930476L21.8413 8.54496L12.157 10.0849C11.0921 10.2548 10.2521 11.0948 10.0821 12.1597L8.54223 21.844L0.927753 28.0136C0.0878101 28.6936 -0.217169 29.8385 0.167805 30.8484L3.67756 40.0028L0.167805 49.1572C-0.222169 50.1671 0.0878101 51.312 0.927753 51.992L8.54223 58.1566L10.0821 67.8409C10.2521 68.9108 11.0871 69.7508 12.157 69.9208L21.8413 71.4607L28.0109 79.0701C28.6959 79.9201 29.8408 80.2201 30.8507 79.8301L40.0001 76.3253L49.1545 79.8351C49.4444 79.9451 49.7444 80.0001 50.0494 80.0001C50.7844 80.0001 51.5093 79.6751 51.9943 79.0701L58.1588 71.4607L67.8432 69.9208C68.9131 69.7508 69.7531 68.9108 69.923 67.8409L71.4629 58.1566L79.0724 51.992C79.9174 51.307 80.2173 50.1671 79.8324 49.1572L76.3226 40.0028Z" fill="#F44336"/>
<path d="M32.5013 35.0029C28.3666 35.0029 25.0018 31.6381 25.0018 27.5034C25.0018 23.3687 28.3666 20.0039 32.5013 20.0039C36.6361 20.0039 40.0008 23.3687 40.0008 27.5034C40.0008 31.6381 36.6361 35.0029 32.5013 35.0029ZM32.5013 25.0036C31.1214 25.0036 30.0015 26.1235 30.0015 27.5034C30.0015 28.8833 31.1214 30.0032 32.5013 30.0032C33.8812 30.0032 35.0012 28.8833 35.0012 27.5034C35.0012 26.1235 33.8812 25.0036 32.5013 25.0036Z" fill="#FAFAFA"/>
<path d="M47.5003 60.0009C43.3655 60.0009 40.0008 56.6362 40.0008 52.5014C40.0008 48.3667 43.3655 45.002 47.5003 45.002C51.635 45.002 54.9997 48.3667 54.9997 52.5014C54.9997 56.6362 51.635 60.0009 47.5003 60.0009ZM47.5003 50.0016C46.1253 50.0016 45.0004 51.1265 45.0004 52.5014C45.0004 53.8763 46.1253 55.0013 47.5003 55.0013C48.8752 55.0013 50.0001 53.8763 50.0001 52.5014C50.0001 51.1265 48.8752 50.0016 47.5003 50.0016Z" fill="#FAFAFA"/>
<path d="M27.5024 60.001C26.9974 60.001 26.4925 59.851 26.0525 59.536C24.9276 58.7311 24.6676 57.1712 25.4725 56.0463L50.4708 21.0487C51.2758 19.9238 52.8356 19.6638 53.9606 20.4687C55.0855 21.2687 55.3405 22.8336 54.5405 23.9535L29.5423 58.9511C29.0473 59.636 28.2823 60.001 27.5024 60.001Z" fill="#FAFAFA"/>
</g>
<defs>
<clipPath id="clip0">
<rect width="80" height="80" fill="white"/>
</clipPath>
</defs>
</svg>
