<svg width="50" height="50" viewBox="0 0 50 50" fill="none" xmlns="http://www.w3.org/2000/svg">
<path d="M40.5188 38.2419C43.3203 35.4882 45 32.0018 45 28.2112C45 23.5557 42.3993 19.1094 37.9692 16.0711C39.7513 14.9774 40.1706 13.8298 40.1706 12.9925C40.1706 10.6044 36.8046 8.64679 31.1532 7.719C30.9114 7.27931 30.5624 6.90452 30.137 6.62773C29.7116 6.35095 29.223 6.18068 28.7143 6.13197C28.2055 6.08326 27.6923 6.15761 27.22 6.34845C26.7477 6.53929 26.3307 6.84074 26.006 7.22619C25.5626 7.2091 25.115 7.19703 24.6668 7.19401H24.5798C24.3016 7.19401 24.0247 7.19552 23.749 7.19854C23.6723 6.301 23.2431 5.46718 22.551 4.8716C21.859 4.27602 20.9579 3.96483 20.0362 4.00316C19.1145 4.0415 18.2437 4.42638 17.6061 5.07726C16.9684 5.72814 16.6134 6.59457 16.6152 7.49523C16.6159 7.62971 16.6247 7.76403 16.6414 7.89752C11.5422 8.89369 8.63306 10.7302 8.63306 12.991C8.63306 13.8459 9.07087 15.0216 10.9375 16.1319C6.50785 19.1873 3.99995 23.519 3.99995 28.2112C3.99995 32.0018 5.68116 35.4882 8.48111 38.2419L7.29025 43.0091C7.2125 43.3173 7.19779 43.6375 7.24697 43.9513C7.29616 44.2652 7.40827 44.5664 7.57689 44.8379C7.74551 45.1093 7.96732 45.3456 8.22963 45.5333C8.49193 45.7209 8.78957 45.8562 9.1055 45.9314C9.42144 46.0065 9.74946 46.0201 10.0708 45.9713C10.3921 45.9226 10.7004 45.8124 10.978 45.6471C11.2557 45.4818 11.4972 45.2647 11.6887 45.0081C11.8803 44.7516 12.0181 44.4607 12.0944 44.1521L12.7794 41.4089C16.3676 43.3393 20.4032 44.3382 24.5 44.31C28.5957 44.3377 32.6302 43.3388 36.2174 41.4089L36.9025 44.1526C37.0578 44.7745 37.4598 45.3108 38.0201 45.6433C38.5804 45.9759 39.2531 46.0776 39.8901 45.9259C40.5272 45.7743 41.0765 45.3818 41.4171 44.8348C41.7578 44.2877 41.8619 43.631 41.7066 43.0091L40.5188 38.2419ZM17.3826 9.65101C17.7588 10.1196 18.2518 10.4862 18.8145 10.7158C19.3772 10.9453 19.9907 11.0301 20.5966 10.9621C21.2024 10.8941 21.7803 10.6756 22.2749 10.3274C22.7696 9.97914 23.1645 9.51288 23.4219 8.97315C24.0451 8.95806 24.671 8.95856 25.303 8.97315C25.2988 9.035 25.2932 9.09635 25.2932 9.15971C25.2935 9.92183 25.5869 10.656 26.1154 11.2169C26.6439 11.7778 27.3689 12.1245 28.1468 12.1882C28.9247 12.252 29.6987 12.0282 30.3156 11.5612C30.9325 11.0942 31.3472 10.418 31.4777 9.6666C34.1283 10.2826 34.992 11.0746 34.992 11.321C34.992 12.0084 31.2804 13.689 24.4005 13.689C17.5207 13.689 13.809 12.0079 13.809 11.322C13.809 11.14 14.4642 10.3163 17.3826 9.65101ZM28.4089 7.8774C28.6685 7.8774 28.9223 7.95257 29.1382 8.09339C29.3541 8.23421 29.5224 8.43438 29.6218 8.66856C29.7212 8.90275 29.7472 9.16046 29.6966 9.40909C29.646 9.65772 29.521 9.88612 29.3374 10.0654C29.1539 10.2447 28.92 10.3668 28.6653 10.4163C28.4107 10.4658 28.1467 10.4405 27.9068 10.3436C27.6669 10.2466 27.4618 10.0824 27.3174 9.8717C27.1731 9.66098 27.096 9.4132 27.0959 9.15971C27.0962 8.81979 27.2346 8.49386 27.4807 8.25345C27.7269 8.01305 28.0607 7.8778 28.4089 7.8774ZM20.1888 5.76537C20.5392 5.76547 20.8817 5.86701 21.173 6.05715C21.4643 6.24729 21.6914 6.51749 21.8254 6.83359C21.9594 7.14969 21.9944 7.49749 21.926 7.83301C21.8576 8.16854 21.6888 8.47672 21.441 8.7186C21.1931 8.96047 20.8774 9.12517 20.5337 9.19188C20.19 9.25858 19.8338 9.2243 19.5101 9.09335C19.1863 8.96241 18.9096 8.74069 18.715 8.45623C18.5203 8.17177 18.4164 7.83734 18.4164 7.49523C18.4168 7.03647 18.6037 6.59664 18.936 6.2723C19.2683 5.94796 19.7189 5.76564 20.1888 5.76537ZM10.3462 43.7352C10.3042 43.9037 10.1953 44.049 10.0436 44.1392C9.89184 44.2293 9.70962 44.2569 9.53701 44.2159C9.36441 44.1749 9.21557 44.0686 9.12322 43.9205C9.03088 43.7723 9.00259 43.5944 9.0446 43.4259L10.0047 39.583C10.3786 39.8767 10.7701 40.1563 11.1724 40.4273L10.3462 43.7352ZM5.80272 28.2112C5.80272 23.7006 8.49759 19.5393 13.1961 16.7962C13.3386 16.7129 13.4548 16.5927 13.5317 16.449C13.6087 16.3053 13.6436 16.1437 13.6325 15.9819C13.6213 15.8201 13.5646 15.6644 13.4687 15.532C13.3727 15.3997 13.2411 15.2958 13.0885 15.2318C11.4258 14.5358 10.4332 13.6986 10.4332 12.9925C10.4332 12.4761 10.97 11.8666 12.0094 11.2793C12.0094 11.2934 12.0053 11.3064 12.0053 11.3205C12.0053 14.1572 18.4303 15.4485 24.3995 15.4485C30.3687 15.4485 36.7948 14.1572 36.7948 11.322C36.7948 11.3034 36.7902 11.2863 36.7896 11.2677C37.8322 11.8546 38.3668 12.466 38.3668 12.9941C38.3668 13.6825 37.4144 14.5026 35.8192 15.1881C35.6675 15.2532 35.5372 15.358 35.4425 15.4908C35.3478 15.6237 35.2925 15.7794 35.2826 15.9409C35.2726 16.1025 35.3086 16.2636 35.3863 16.4065C35.4641 16.5494 35.5808 16.6686 35.7234 16.751C40.4724 19.4926 43.1972 23.6699 43.1972 28.2112C43.1972 36.1178 34.8092 42.5499 24.5 42.5499C14.1907 42.5499 5.80272 36.1178 5.80272 28.2112ZM39.4624 44.2154C39.3769 44.2358 39.2882 44.2396 39.2012 44.2265C39.1142 44.2134 39.0308 44.1837 38.9556 44.1391C38.8804 44.0945 38.8149 44.0359 38.763 43.9666C38.711 43.8973 38.6735 43.8186 38.6527 43.7352L37.8286 40.4273C38.2303 40.1568 38.6223 39.8772 38.9962 39.583L39.9558 43.4254C39.9766 43.5089 39.9804 43.5955 39.9669 43.6804C39.9535 43.7652 39.923 43.8467 39.8773 43.92C39.8315 43.9934 39.7714 44.0572 39.7004 44.1079C39.6294 44.1586 39.5489 44.1951 39.4634 44.2154H39.4624Z" fill="black"/>
<path d="M12.6617 20.2055C11.5152 21.1715 10.5919 22.3874 9.95867 23.7651C9.32538 25.1429 8.99792 26.6481 8.99996 28.1719C8.99996 28.3916 9.08483 28.6022 9.2359 28.7575C9.38697 28.9128 9.59185 29 9.80549 29C10.0191 29 10.224 28.9128 10.3751 28.7575C10.5262 28.6022 10.611 28.3916 10.611 28.1719C10.6094 26.8927 10.8844 25.6291 11.4161 24.4726C11.9478 23.316 12.7229 22.2954 13.6854 21.4845C13.7711 21.4168 13.8426 21.3321 13.8958 21.2354C13.9489 21.1387 13.9826 21.0319 13.9948 20.9216C14.007 20.8112 13.9975 20.6994 13.9668 20.5929C13.9361 20.4864 13.8849 20.3873 13.8162 20.3016C13.7475 20.2158 13.6627 20.1452 13.5669 20.0938C13.4711 20.0425 13.3662 20.0114 13.2585 20.0026C13.1507 19.9938 13.0424 20.0073 12.9399 20.0424C12.8373 20.0775 12.7427 20.1335 12.6617 20.207V20.2055Z" fill="black"/>
</svg>
