<svg width="50" height="50" viewBox="0 0 50 50" fill="none" xmlns="http://www.w3.org/2000/svg">
<g clip-path="url(#clip0)">
<path d="M46.6753 25.6478C46.4741 25.2362 46.4741 24.7641 46.6753 24.3526L48.5401 20.5377C49.5784 18.4135 48.7558 15.8818 46.6673 14.7737L42.9163 12.7835C42.5117 12.5689 42.2342 12.1868 42.155 11.7358L41.4214 7.55326C41.0129 5.22457 38.8588 3.65973 36.5183 3.99088L32.314 4.58561C31.8601 4.64967 31.4114 4.50377 31.0822 4.18531L28.0304 1.23299C26.3311 -0.410947 23.669 -0.411045 21.9698 1.23299L18.9178 4.18561C18.5885 4.50416 18.1398 4.64977 17.6861 4.5859L13.4817 3.99118C11.1404 3.65983 8.98714 5.22486 8.57864 7.55356L7.84505 11.7359C7.76585 12.187 7.48842 12.569 7.08383 12.7837L3.33287 14.7739C1.24441 15.8819 0.421757 18.4138 1.46003 20.538L3.32477 24.3528C3.52594 24.7644 3.52594 25.2365 3.32477 25.648L1.45993 29.4628C0.421659 31.5869 1.24431 34.1186 3.33278 35.2267L7.08373 37.217C7.48842 37.4316 7.76585 37.8136 7.84505 38.2647L8.57864 42.4472C8.95052 44.5671 10.7683 46.0538 12.8574 46.0536C13.0632 46.0536 13.272 46.0392 13.4818 46.0095L17.6862 45.4148C18.1396 45.3504 18.5886 45.4966 18.9179 45.815L21.9698 48.7674C22.8196 49.5894 23.9096 50.0004 25 50.0003C26.0902 50.0002 27.1809 49.5892 28.0303 48.7674L31.0822 45.815C31.4115 45.4966 31.8603 45.3511 32.314 45.4148L36.5183 46.0095C38.8599 46.3407 41.0129 44.7758 41.4214 42.4471L42.1551 38.2648C42.2343 37.8136 42.5117 37.4317 42.9163 37.217L46.6673 35.2267C48.7558 34.1187 49.5784 31.5868 48.5401 29.4627L46.6753 25.6478ZM45.3156 32.6792L41.5647 34.6694C40.3688 35.3041 39.5486 36.4328 39.3147 37.7664L38.5811 41.9488C38.4429 42.7366 37.7145 43.2658 36.9222 43.154L32.7179 42.5593C31.377 42.3694 30.0503 42.8009 29.0772 43.7422L26.0252 46.6944C25.4504 47.2505 24.5497 47.2505 23.9747 46.6944L20.9229 43.7421C20.1005 42.9465 19.0253 42.5154 17.9028 42.5154C17.6971 42.5154 17.4898 42.5298 17.2822 42.5592L13.0778 43.1539C12.2862 43.2658 11.5572 42.7365 11.419 41.9487L10.6853 37.7662C10.4513 36.4326 9.63118 35.3038 8.43519 34.6693L4.68423 32.6791C3.9776 32.3042 3.69928 31.4477 4.05054 30.729L5.91538 26.9141C6.50991 25.6977 6.50991 24.3026 5.91538 23.0862L4.05054 19.2713C3.69928 18.5526 3.9776 17.6961 4.68423 17.3212L8.43519 15.331C9.63108 14.6963 10.4513 13.5676 10.6852 12.234L11.4188 8.0516C11.557 7.26371 12.2854 6.73442 13.0776 6.84633L17.282 7.44106C18.6223 7.6308 19.9496 7.19946 20.9227 6.25815L23.9746 3.30583C24.5494 2.74978 25.4501 2.74978 26.0251 3.30583L29.077 6.25815C30.0501 7.19955 31.3771 7.6308 32.7177 7.44106L36.922 6.84633C37.7137 6.73432 38.4427 7.26371 38.5809 8.0516L39.3145 12.2341C39.5485 13.5677 40.3686 14.6965 41.5646 15.331L45.3155 17.3212C46.0222 17.6961 46.3005 18.5526 45.9492 19.2713L44.0844 23.0861C43.4899 24.3024 43.4899 25.6977 44.0844 26.914L45.9492 30.7288C46.3006 31.4477 46.0223 32.3043 45.3156 32.6792Z" fill="black"/>
<path d="M35.5355 14.4643C34.9726 13.9012 34.0595 13.9012 33.4964 14.4643L14.4644 33.4964C13.9013 34.0595 13.9013 34.9725 14.4644 35.5356C14.7459 35.8171 15.1149 35.9579 15.4839 35.9579C15.8528 35.9579 16.222 35.8172 16.5034 35.5356L35.5354 16.5036C36.0987 15.9404 36.0987 15.0275 35.5355 14.4643Z" fill="black"/>
<path d="M19.2324 12.0234C16.3172 12.0234 13.9454 14.3952 13.9454 17.3104C13.9454 20.2256 16.3172 22.5974 19.2324 22.5974C22.1476 22.5974 24.5194 20.2256 24.5194 17.3104C24.5194 14.3952 22.1476 12.0234 19.2324 12.0234ZM19.2324 19.7135C17.9073 19.7135 16.8293 18.6355 16.8293 17.3103C16.8293 15.9852 17.9073 14.9072 19.2324 14.9072C20.5575 14.9072 21.6356 15.9852 21.6356 17.3103C21.6355 18.6355 20.5575 19.7135 19.2324 19.7135Z" fill="black"/>
<path d="M30.7676 27.4033C27.8524 27.4033 25.4806 29.7751 25.4806 32.6903C25.4806 35.6055 27.8524 37.9773 30.7676 37.9773C33.6828 37.9773 36.0546 35.6055 36.0546 32.6903C36.0546 29.7751 33.6828 27.4033 30.7676 27.4033ZM30.7676 35.0934C29.4425 35.0934 28.3644 34.0154 28.3644 32.6903C28.3644 31.3652 29.4424 30.2872 30.7676 30.2872C32.0927 30.2872 33.1707 31.3652 33.1707 32.6903C33.1707 34.0154 32.0927 35.0934 30.7676 35.0934Z" fill="black"/>
</g>
<defs>
<clipPath id="clip0">
<rect width="50" height="50" fill="white"/>
</clipPath>
</defs>
</svg>
