<svg width="20" height="20" viewBox="0 0 20 20" fill="none" xmlns="http://www.w3.org/2000/svg">
<g clip-path="url(#clip0)">
<path d="M18.6701 10.2591C18.5896 10.0945 18.5896 9.90564 18.6701 9.74103L19.416 8.21507C19.8313 7.36542 19.5022 6.35273 18.6668 5.90949L17.1665 5.1134C17.0046 5.02754 16.8936 4.87473 16.8619 4.6943L16.5685 3.02131C16.4051 2.08983 15.5435 1.46389 14.6073 1.59635L12.9255 1.83424C12.744 1.85987 12.5645 1.80151 12.4328 1.67413L11.2121 0.493195C10.5324 -0.164379 9.46753 -0.164418 8.78784 0.493195L7.56707 1.67424C7.43535 1.80166 7.25586 1.85991 7.07438 1.83436L5.39263 1.59647C4.45611 1.46393 3.59479 2.08994 3.43139 3.02142L3.13795 4.69434C3.10628 4.87481 2.9953 5.02758 2.83346 5.11348L1.33308 5.90957C0.497696 6.35277 0.168636 7.36554 0.583946 8.21518L1.32984 9.74111C1.41031 9.90576 1.41031 10.0946 1.32984 10.2592L0.583907 11.7851C0.168597 12.6348 0.497657 13.6475 1.33304 14.0907L2.83343 14.8868C2.9953 14.9726 3.10628 15.1255 3.13795 15.3059L3.43139 16.9789C3.58014 17.8268 4.30724 18.4215 5.1429 18.4215C5.22521 18.4215 5.30872 18.4157 5.39267 18.4038L7.07442 18.1659C7.25578 18.1402 7.43539 18.1986 7.56711 18.326L8.78784 19.507C9.12776 19.8358 9.56378 20.0002 9.99995 20.0001C10.436 20.0001 10.8723 19.8357 11.212 19.507L12.4328 18.326C12.5645 18.1986 12.7441 18.1404 12.9255 18.1659L14.6073 18.4038C15.5439 18.5363 16.4051 17.9103 16.5685 16.9788L16.862 15.3059C16.8937 15.1255 17.0046 14.9727 17.1665 14.8868L18.6668 14.0907C19.5022 13.6475 19.8313 12.6347 19.416 11.7851L18.6701 10.2591ZM18.1262 13.0717L16.6258 13.8678C16.1474 14.1216 15.8194 14.5731 15.7258 15.1065L15.4324 16.7795C15.3771 17.0947 15.0857 17.3063 14.7688 17.2616L13.0871 17.0237C12.5508 16.9478 12.0201 17.1204 11.6308 17.4969L10.41 18.6778C10.1801 18.9002 9.81983 18.9002 9.58983 18.6778L8.3691 17.4968C8.04011 17.1786 7.61004 17.0061 7.16106 17.0061C7.07879 17.0061 6.99586 17.0119 6.91282 17.0237L5.23107 17.2616C4.91443 17.3063 4.62283 17.0946 4.56752 16.7795L4.27404 15.1065C4.18045 14.573 3.8524 14.1215 3.37401 13.8677L1.87363 13.0716C1.59097 12.9217 1.47964 12.5791 1.62015 12.2916L2.36608 10.7656C2.6039 10.2791 2.6039 9.72103 2.36608 9.23447L1.62015 7.70851C1.47964 7.42105 1.59097 7.07843 1.87363 6.92847L3.37401 6.13238C3.85236 5.87852 4.18045 5.42703 4.274 4.8936L4.56744 3.22064C4.62275 2.90549 4.91408 2.69377 5.23099 2.73853L6.91274 2.97642C7.44887 3.05232 7.97976 2.87978 8.36902 2.50326L9.58979 1.32233C9.81971 1.09991 10.18 1.09991 10.41 1.32233L11.6307 2.50326C12.02 2.87982 12.5508 3.05232 13.087 2.97642L14.7687 2.73853C15.0854 2.69373 15.377 2.90549 15.4323 3.22064L15.7257 4.89364C15.8193 5.42707 16.1474 5.87859 16.6258 6.13238L18.1262 6.92847C18.4088 7.07843 18.5201 7.42105 18.3796 7.70851L17.6337 9.23443C17.3959 9.72095 17.3959 10.2791 17.6337 10.7656L18.3796 12.2915C18.5202 12.5791 18.4088 12.9217 18.1262 13.0717Z" fill="white"/>
<path d="M14.2143 5.78514C13.9891 5.5599 13.6238 5.5599 13.3986 5.78514L5.78578 13.398C5.56055 13.6232 5.56055 13.9884 5.78578 14.2136C5.8984 14.3263 6.04602 14.3826 6.19359 14.3826C6.34117 14.3826 6.48883 14.3263 6.60141 14.2136L14.2142 6.60083C14.4395 6.37556 14.4395 6.01041 14.2143 5.78514Z" fill="white"/>
<path d="M7.69303 4.80859C6.52694 4.80859 5.57824 5.7573 5.57824 6.92339C5.57824 8.08947 6.52694 9.03818 7.69303 9.03818C8.85912 9.03818 9.80782 8.08947 9.80782 6.92339C9.80782 5.7573 8.85912 4.80859 7.69303 4.80859ZM7.69303 7.88463C7.163 7.88463 6.73179 7.45342 6.73179 6.92335C6.73179 6.39331 7.163 5.9621 7.69303 5.9621C8.22307 5.9621 8.65431 6.39331 8.65431 6.92335C8.65428 7.45342 8.22307 7.88463 7.69303 7.88463Z" fill="white"/>
<path d="M12.307 10.9619C11.1409 10.9619 10.1922 11.9106 10.1922 13.0767C10.1922 14.2428 11.1409 15.1915 12.307 15.1915C13.4731 15.1915 14.4218 14.2428 14.4218 13.0767C14.4218 11.9106 13.4731 10.9619 12.307 10.9619ZM12.307 14.038C11.777 14.038 11.3457 13.6067 11.3457 13.0767C11.3457 12.5467 11.7769 12.1155 12.307 12.1155C12.837 12.1155 13.2682 12.5467 13.2682 13.0767C13.2682 13.6067 12.837 14.038 12.307 14.038Z" fill="white"/>
</g>
<defs>
<clipPath id="clip0">
<rect width="20" height="20" fill="white"/>
</clipPath>
</defs>
</svg>
